<?xml version="1.0" encoding="UTF-8"?>
<svg id="svg2" xmlns="http://www.w3.org/2000/svg" xmlns:svg="http://www.w3.org/2000/svg" xmlns:rdf="http://www.w3.org/1999/02/22-rdf-syntax-ns#" xmlns:dc="http://purl.org/dc/elements/1.1/" xmlns:cc="http://creativecommons.org/ns#" version="1.1" viewBox="0 0 588.44 532.08">
  <!-- Generator: Adobe Illustrator 30.6.0, SVG Export Plug-In . SVG Version: 2.1.4 Build 109)  -->
  <defs>
    <style>
      .st0 {
        fill: #73bce6;
      }

      .st1 {
        fill: #419bce;
      }

      .st2 {
        fill: #56ade2;
      }

      .st3 {
        fill: #317886;
      }

      .st4 {
        fill: #cceafb;
      }

      .st5 {
        fill: #78b4e8;
      }

      .st6 {
        fill: #a7e8ea;
      }

      .st7 {
        fill: #bff0f9;
      }

      .st8 {
        fill: #6399e0;
      }

      .st9 {
        fill: #83dbec;
      }

      .st10 {
        fill: #59acdb;
      }

      .st11 {
        fill: #3da6cb;
      }

      .st12 {
        fill: #a6e0f5;
      }

      .st13 {
        fill: #377ebb;
      }

      .st14 {
        fill: #b8d4f8;
      }

      .st15 {
        fill: #4690d1;
      }

      .st16 {
        fill: #32758d;
      }

      .st17 {
        fill: #acdbf6;
      }

      .st18 {
        fill: #3594a7;
      }

      .st19 {
        fill: #9ac0f2;
      }

      .st20 {
        fill: #89d3ed;
      }

      .st21 {
        fill: #3564a0;
      }

      .st22 {
        fill: #346a9a;
      }

      .st23 {
        fill: #b2d7f7;
      }

      .st24 {
        fill: #7eadea;
      }

      .st25 {
        fill: #3774c2;
      }

      .st26 {
        fill: #68cee2;
      }

      .st27 {
        fill: #4b86d4;
      }

      .st28 {
        fill: #94c6f1;
      }

      .st29 {
        fill: #8eccef;
      }

      .st30 {
        fill: #a0e6f3;
      }

      .st31 {
        fill: #6dc5e4;
      }

      .st32 {
        fill: #4fc0d6;
      }

      .st33 {
        fill: #5ea2dd;
      }

      .st34 {
        fill: #3687b5;
      }

      .st35 {
        fill: #38b1c8;
      }
    </style>
  </defs>
  <path id="path16" class="st6" d="M581.49,348.85l-3.96.72.17,4.69s-3.05,1.61-3.05,2.16,1.27,4.85,1.27,4.85l-1.44,3.07-6.66-2.71s-2.35-6.12-3.79-6.3c-1.44-.17-2.33,2.53-2.33,2.53l-2.16,5.57-1.61,5.04,2.16,2.69-1.81,5.41,1.63,3.22,2.16,7.2,2.35,3.79,5.21-.19,4.15,3.79s1.25,3.41,1.44,3.96c.17.55-1.09,3.6-.55,4.32.55.72,2.71,2.88,2.71,2.88l-1.38,2.99-3.48,1.21-2.04,2.27-3.96.47-2.63,4.92-1.91,4.2-2.65,2.39,1.21,5.04,2.75,3.37.85,5.4,1.31,8.03,4.56,5.28,3.24,5.58.17.29,2.95,2.22,1.91,4.38,2.63,4.09,3.24,2.27,2.65,2.63-2.76.72-2.52.36-.72,3.84s-1.91,4.07-1.91,4.43v4.45l-2.04,1.19s-.61-3.6-.83-2.88c-.25.72-.72,6.36-.72,6.36l-3.01.23-3.11-2.39,1.8-2.88-1.68-2.4,2.04-1.8-3.12-2.88-6.84,4.2v2.52l-3.71.95-3.12,1.21-2.99-.72-4.2-2.65-2.88-2.39-1.91-3.48-2.58-2.52-5.04-.99-3.43-2.61,2.27-2.63.52-.6-2.71-4.05-2.79-2.79-1.61-1.98-3.05-.98-2.62,1.52-2.33-1.27-2.07.19-.55-2.25s1.54-1.27,1.54-1.54c0-.26-1.8-4.4-1.8-4.4l-.55-3.96-3.96-3.15-4.59-2.16-3.22-2.97-9.54-10.71-3.87-.72-3.05-3.41-3.07-.36-2.43-2.71-2.33-1.07-.17-2.43,3.77.36,2.88-1.96-.63-4.07,2.16-.91,1.35-2.42,2.52-.09-2.79-3.79-2.88-.63.63-2.69,4.51-.46,3.35-1.67,2.82-1.21,1.5-2.94-1.93-1.55-2.33,1.14-3.66,1.32-1.01.07-2.42.16-2.16,1.21-3.24.89-2.22,1.93s-2.46.47-2.63.53c-.19.06-3.54.91-3.54.91l-4.02.89s-1.63,1.74-1.86,1.91c-.24.19-3.48.13-3.48.13l-1.38,2.33,1.08,3.18,1.5,4.38s2.65,1.93,2.82,1.99c.19.06,2.82-.42,2.82-.42l3.54.89,2.22.96s-1.02,2.22-1.14,2.39c-.13.19-2.22,1.27-2.22,1.27l-2.88-.24-1.8-1.37h-1.63l-1.08,2.27-2.22.89-2.16-.59-2.58,2.63-3.18,2.63-2.52-1.02s-1.25-3.05-1.25-3.3c0-.23-.37-4.13-.37-4.13l-2.03-.72-2.76-1.38-2.27-.36.78-2.22,7.56-3.35-.3-2.4-2.63-.3-1.86.6-3.24-1.27s-1.44.6-1.68.6-2.99-1.14-2.99-1.14l-3.01-1.21-.72-1.37,1.8.23,1.21,1.21,1.5-1.63s-.3-2.69-.48-2.76c-.19-.06-1.87-.65-2.29-.65s-3.41.47-3.41.47l-3.24.72-1.74,1.68-1.14,2.88-6.89,7.2-.13.47-.59,2.22,1.19,2.22-1.63,2.04-.36,3.18-3.77-.06-2.16,2.16-.86,3.54-.04.17-1.19,3.41.23,1.61.25,1.76-.95,2.63-3.84-.72-.83,3.6s0,3.24.23,3.6c.24.36-2.88,3.12-2.88,3.12l1.57,3.83.66,1.51-3.6.81-1.81-1.44-3.6.72-.17.06-3.43,1.11,1.99,2.35.04.53.23,2.52-1.89,2.33-.27,1.09-.55,1.61-2.33.99-2.3-1.48h-2.12l-2.1-.72-1.18.89-1.7.68-.46,1.4s-.53,1.4-.72,1.25c-.17-.13-.72-1.4-.62-1.61.09-.23-.63-1.22-.82-1.22-.17,0-1.48.5-1.53.63-.04.14-.89.86-1.04.86-.13,0-1.7-.4-2.12-.4s-1.44.62-1.44.76c0,.13.23,1.8.23,1.8l1.77,1.12,1.74.72,1.08,1.8-.22.72-1.61-.1-.61-1.53-1.58-.45-.36.47s1.14,1.24,1.04,1.27c-.09.03-1.17.23-1.25.2-.09-.03-1.25-.92-1.25-.92,0,0-.79.53-.66.72.12.17.92,1.02.81,1.14-.12.11-1.11.75-1.11.75l-1.63-1.22-.2-1.77-1.18-1.38-.59-.83s-.96-1.05-1.08-1.15c-.11-.09-1.53.79-1.53.79,0,0-1.02,2.69-1.05,2.78-.03.1.42,2.4.47,2.49.06.09,1.86,2.4,1.86,2.4l1.61,3.04s.17,1.44.3,1.58c.14.13,1.09.85.95,1.04-.13.17-1.57.53-1.57.53,0,0-1.76,1.12-1.63,1.31.14.17,1.4,1.25,1.58,1.44.17.17.17,1.44.32,1.7.13.27,1.57,1.31,1.57,1.31l1.84,1.4-.13-1.48-1.8-1.71s.04-1.8.22-1.89c.19-.09,1.94,1.04,2.12,1.21.19.19.95,1.31.95,1.31l2.47.49s2.02.19,2.12.32c.09.14.42,3.08.42,3.08l1.55,1.01,1.38,1.21v1.25l1.74.96s1.74,2.27,1.86,2.46c.12.17,2.52,1.5,2.52,1.5l.53,1.5-1.91.13s-1.74-1.69-1.99-2.04c-.23-.36-.95-.72-1.67-1.33-.72-.6-1.44-1.61-1.44-1.61l-1.44-1.68-2.04-.96s-1.02-1.14-.83,1.15c.17,2.27.96,1.25.17,2.27-.78,1.02,2.04,3.24-.78,1.02-2.82-2.23-.53-1.14-2.82-2.23-1.67-.78-1.89-.99-1.89-1.05l-1.35.4-1.55-1.68-2.88-1.61-2.22-1.02-2.29.65,6.78,3.6s1.27,1.74,1.38,1.99c.13.24,1.57,1.14,1.57,1.14l.53,2.46-1.91.78-1.38-1.44-2.27-1.08,1.61,4.79,2.33,3.7-.35,2.43-2.53-.82s-.89-1.44-1.25-1.44-1.35,2.07-1.35,2.07l-2.69-2.97-1.08-1.35-2.16,1.35-1.63-1.89.81-3.34-1.97-2.69-1.97-2.98,1.44-2.06,2.88-1.63-1.27-1.25-4.04-.63-.63-2.35-3.24-.26,1.53-3.51-3.86-1.89-.46-1.25-1.08-2.98-2.16-3.51-3.24-1.8-1.08-2.42s.91-2.71.99-3.25c.09-.53-.72-3.05-.72-3.05l1.08-2.16-.27-3.6,1.53-1.8-1.34-2.16-.33-.2-.6-.36-2.58-1.51-2.25-2.78-1.99-1.44-3.38-2.45-.94-.68-1.53-1.11-1.44.53-2.43-1.53-.63-2.79-2.97-.36s-3.14-1.35-2.52-1.8c.63-.45.45-1.34.45-1.34l-3.5-1.18-2.26-.98-5.3-4.95.17-2.71s-2.61-1.35-2.61-1.61c0-.27.09-3.15.09-3.15l-.99-1.71-3.77-1.25-2.43,2.33-2.52-1.97-1.7-2.85-.19-2.88h2.35s.03-.01.07-.04c.22-.16.83-.63.83-1.09,0-.3-.24-.59-.98-.79-.45-.12-.81-.22-1.09-.3l-1.07-.29-1.74.89-4.43,2.35-2.88.06s-.66,2.22-.53,2.46c.12.23,1.55,2.94,1.55,2.94l-1.32,2.22.07,4.79,2.69,3.6s7.2,3.97,7.56,5.23c.36,1.25,1.99,5.4,1.99,5.4l3.41,6.84,4.13,5.4,4.69,1.44,5.21-.55.72,2.53-1.27,1.97,4.51,2.35,6.12,2.33,5.93,4.87,2.88,4.85.72,4.32-1.89-.36-1.17-1.53-1.89-1.18-.1-2.5-2.25-.99-2.79-2.07-3.05.81-2.25,5.86.09,3.35,1.99-.3,2.94,1.97-.96,4.33-2.88.72.45,2.69-1.89,2.43-1.53,2.69-3.15,1.08-2.79.55-4.16,4.52,2.03,3.66.13,3.37-2.76,3.3s-3.96-1.55-3.96-1.8-2.88-3.6-2.88-3.6c0,0-2.27-.83-2.63-.96-.36-.12-6-4.91-6-4.91l-3.66-1.44-2.58-2.65s1.67-1.67,2.58-1.55c.89.11,3.41,1.8,3.41,1.8l1.32-1.68,3.35,1.33,3.96-.36s2.29-.12,3.12-.12,2.76-1.21,2.76-1.21h5.15l2.76-2.03,2.52-3.84-.61-3.6-.47-4.07-1.32-2.4-2.04-3.24-3.83.36-1.44-2.16-.49-2.27-2.99-1.57-2.16-2.75-3.35-3.01-6-1.38-3.66-2.69-3.37-2.69-1.61-3.97-2.88-.17-2.71-3.6-3.05-3.24-2.88-3.41-.89-4.69-2.53-5.04-4.13-2.69-4.85-2.35-2.88,1.27-3.07,2.71h-.03s-4.1,1.25-4.1,1.25l-2.95,2.4-1.83.92-1.44,1.53-.63,1.09h-1.25l-1.35,2.61h-1.61l-.55,1.44-4.59-.45-.89-1.09-1.91-.29-2.1-2.46-1.66.49-3.14-.56-2.53.22-1.74-1.97-6.79,4.68-1.17,5.84.98,1.53-.17,1.89,1.89.72-1.25,2.16.35,1.9-1.79,1.4-4.15,2.06-3.24,3.38-3.01.27-3.11.81-2.39.68-2.2,2.56.95,2.01-2.61,1.35-7.01,9.14v2.75l1.32,3.6,1.25,1.63,1.38,1.44-1.77,1.91-1.97.72-2.97,4.09-.68,2.35.45,3.64-5.23-.32-3.07,1.87-1.55,3.07-1.32,2.39h-2.99l-2.46.79-4.62-.43-5.22.96-3.24-.72-2.58,2.65h-2.75l-4.26,4.66-2.82-.42-2.65-2.94-1.01-4.85-3.84-3.24-4.73-.49-2.88,2.29-1.74-.13-2.27-1.08-4.92.06.36-4.02.6-2.52-.96-2.99.78-3.54-2.58-1.14-1.08-1.8-2.1-1.02.91-5.64,2.58-2.22,2.33-10.61,1.21-2.46-.19-4.02-1.86-4.32.53-3.96-.03-.11-.63-2.52,1.38-1.54-1.34-1.57.09-2.07-1.48-1.12-1.31-2.65,1.89-3.15,3.43-.5,2.79-.85,1.08-3.24,3.64-.52,3.91,1.32,9.85-.53,1.8.68,2.25-.4,2.98,1.76,8.58.45,1.21-.91,2.69-.09,2.58,1.25,1.54-.29,3.87-.16,1.38,1.22,5.99-1.08.83-3.14.88-3.3,1.44-1.44-.63-5.48,1.89-1.63-1.08-1.8.45-7.02h1.63l-2.79-4.76.1-3.77-4.1-2.88-2.03-2.88-.06-3.4-3.6-1.86-.23-2.4-4.07-2.25-2.02-.32-2.3-.93-1.4-1.18-1.12.46-1.3-.72-1.48.94-2.35-.26-.13-1.31-1.94-1.35.91-1.53-.19-1.76-1.12-1.09.3-1.83,2.01-1.86,4.55-.49,2.52-.42.72-1.67,3.84.72,2.82,3.05,2.4-.83,2.58.59,1.14-.95,2.27.83,1.99-.36-.52-3.05-1.08-2.27-.04-2.65-1.53-1.93.36-2.35,3.81-.63,1.04,2.12-.17,1.67,2.52.94,4.99-.09,2.12.46,2.52-1.99-1.54-.55.42-2.25,4.53-2.88,2.66.23,4.13-3.86-.72-3.6,1.02-2.88.23-2.1,6.66-2.75,5.64-3.73,1.86.72.45.99,1.35-.27,1.8.49.47-.14,2.43-.73.27-1.86-1.11-3.15-.58-3.9,2.33-1.67,1.74-4.26.6-3.84,1.8-2.09-.89-2.35,1.12-2.43s1.38-1.93,1.66-2.12c.27-.17,2.66-1.48,2.66-1.48l2.97.36.68.68-1.44.49-2.66.68s-2.16,1.35-2.25,1.48c-.09.14-.81,1.5-.89,1.67-.1.19-.59,1.21-.4,1.4.17.19.85.68,1.02.53.19-.13,1.94-2.42,1.94-2.42,0,0,1.21-1.58,1.44-1.67.22-.09,2.37-1.17,2.37-1.17l2.39-.36,1.04-1.44,1.89-.23,1.67.81,2.16-1.97,2.07-1.53,4.46-1.25,1.02-.29,2.33,2.43.72,1.8,2.79.46-.72-3.43.72-1.89,1.25-.27,1.04.72,1.08-.32v-2.65l-.68-1.22.68-1.8-1.89-.57-.68-1.4,1.89-1.71-1.54-3.2-.79-1.35.22-1.14-.1-5.9-1.01-.78-.78.85-.94-.85-.36-1.48-1.12-.95-.11-15.66.96-2.03,1.74-3.65,1.55-1.27,2.58-.36h3.6l1.68-1.5,1.71-3.33,1.97-1.89h2.43l1.63,1.79v2.98l-.82,2.25-.62,2.24-.37,2.16-.35,1.71-2.16,1.17h1.89l-.55,1.63,1.8-.36,2.43.27,2.16,1.38-1.35,3.28-1.71,1.81h-1.61l-1.53,1.06-1.18,2.79-1.97,2.88.09,1.53,1.67-.22,2.83-.45,1.57,1.38,1.53,1.14.46,2.78.58,1.5-1.34.66-1.5.5-1.89-.19-1.8-1.17-1.4-1.97-1.12-1.5-.76,1.44s-.4,1.9-.32,2.07c.09.19.95,1.31.95,1.31l.13,1.65,1.71,2.07.72,1.67-.81,1.84,2.01.45s.59,1.31.76,1.44c.19.13,1.71.23,1.71.23l1.89-.32,1.04-.85,1.84-1.9,1.35,1.04-1.44,1.8-.27,1.89s-1.25,1.04-1.3,1.18c-.04.13-.27,1.38-.14,1.48.14.09,2.03-.36,2.03-.36l1.53.58,1.94-1.21s1.97-.49,2.1-.55c.14-.04,2.62-1.65,2.62-1.65l1.53-1.76s2.16-1.08,2.29-1.08c.14,0,2.52.13,2.52.13l1.18-2.73,3.19-.59,1.21,2.35-1.08,2.2s-1.63.68-1.27,1.21c.36.55,1.8,1.84,1.8,1.84l2.14.46,1.44,1.97,1.32,1.74,2.52-1.38,1.91-2.63.91-.23,9.3-2.29,3.17-2.95,3.54-1.31,3.24-2.22,4.61-.6,1.22-.76,3.41.04,2.48,1.31.81,1.74h-.76l-1.08-.35v1.53s1.12,1.48,1.25,1.57c.14.09,3.74.99,3.87.99.14,0,3.33-1.89,3.33-1.89l1.83-4.01.12-.26,1.04-2.12,4.59-1.04,2.25,1.89,2.79-.17v-4.23l1.17-1.27-2.79-3.5.36-3.6-.99-3.15.63-3.15v-6.2l3.41-4.87v-3.41l2.23-5.04,5.34-1.5,6.1,5.28,1.33,3.17,4.15,2.16,2.03-.42,1.74-1.97,1.08-3.18-.36-8.05.75-3.47.27-1.29.76-2.12-1.57-.4s-.99,1.35-1.12,1.4c-.14.04-1.71,0-1.71,0l-1.8-1.4-1.44-1.53-1.4-.89-2.03,1.21-2.61,2.2-2.25,1.63-1.53-.32-.91,2.01-1.21,2.03-1.99-.13-.32-1.54,1.18-.32.81-1.4-2.2-1.65.22-2.79s2.88-2.12,3.02-2.12c.13,0,3.87-.49,3.87-.49l3.6-.68,1.89-.72v-5.44l1.3-3.51,5.99-1.48,7.2-3.6h6.66l5.76,1.44,9.53.72,1.44-4.68h3.24l3.96-2.69h3.32l3.96.89,3.07-.89-1.35-2.43-2.69-1.8h-3.43l-2.71.63-1.7-2.79h-1.9l.99-5.04-6.12,1.97-3.96-.27-4.05.63-6.12,2.16-6.75,1.53-3.77,2.07-2.43,1.44-3.07,1.18-2.96.72-3.51-.27-1.53,1.61-.99-1.34.72-1.51-2.27-1.31.78-1.68-3.11-.3-2.29-1.86.19-1.55-2.22-.25-3.54-2.52-1.5-3.3-.07-3.99,1.09-3.15.09-3.77.36-2.35-2.26-6.84.37-4.68-1.99-3.6-.63-6.12,2.62-1.35.89-4.77,3.69-1.53,1.8-3.15,3.33-2.25,2.65-1.71.47-2.58,1.57.47,1.73-2.33,1.21-2.95,2.03-1.37,1.24-3.44,2.43-2.56.53-2.43,2.25-2.43.72-2.42,3.7-.46,2.42-1.53-.63-3.68-.29-5.28-1.44-3.11-3.48-1.57-2.04-1.67-4.32-.49-4.19.97-6.12-1.91-.58.76-1.58,2.12-.49,2.75-3.35,1.44-3.6,2.4,1.44,2.4-2.27,4.19-.6,3.37,1.19,3.96,1.68,3.96-2.52,1.44-2.4,4.26-.36,3.77-3.24,2.04-2.09.66-1.27,1.79-1.44.63-2.07,1.63-1.8,1.89-1.97.72-.46,2.33-1.78.82-2.88-.19s-.82,2.35-.91,2.62c-.09.26-.45,3.33-.45,3.33l-1.99.53-.81,1.99-.63,2.52-1.97.72-2.79.36-.63,2.6,2.07,2.43-.91,3.14s-1.34,2.88-1.07,3.43c.26.55,1.44,2.43,1.44,2.43,0,0-.72.81-1.09.99-.35.17-2.06,3.69-1.78,3.94.26.27.98,1.35.72,2.07-.27.72-.72,2.43-.72,2.79s.89,2.61.98,2.97c.09.36.36,1.71.36,2.16s.99,1.9.99,1.9l1.44.06.83,2.03,1.32-.3,1.38,1.44,1.02,1.81,1.31.59.97,1.27-.53,2.52,2.39.89,1.44,2.1.24,1.8-1.57,1.44.72,1.86-2.03,1.68.17,2.03-1.97,1.51-.79,3.12-1.4.99-1.44,1.27-1.67-.23-2.07,2.48-2.16.22-1.48,1.67-1.34.72.35,2.52-.94,1.84s.76,1.67.85,1.89c.09.23-1.17,2.03-1.17,2.16v2.71l-.48,1.44.36,2.27s-.96,1.38-.96,1.57c0,.17.66,2.09.66,2.09l-.91,1.74.07,2.65.29,2.16s-.72,1.14-.53,1.25c.17.12,1.61-.72,1.61-.72l.79-3.35,1.44-3.24,1.44-.11-.07,1.61-.83,3.6-3.6,10.91-1.68.55-.11-1.32.47-2.46-.17-1.97-1.02-.42-1.02,2.16-.53,2.39s-.25,1.93-.49,2.23c-.23.29-1.86,1.31-1.86,1.31l-5.45-1.02-4.26.36-2.27,3.48s0,2.22.11,2.69c.12.49-.11,3.48-.11,3.48,0,0-2.04,1.32-2.65,1.27-.59-.06-2.16-.78-2.16-.78l-2.58.72-2.52-.72-.66-2.23-.06-3.05-1.14-3.66-2.52-1.8.61-2.82.83-3.43-2.04-2.33-1.61-4.32-2.16-2.46s.66-2.88.47-3.12c-.17-.23-2.27-2.63-2.46-2.99-.17-.36.37-2.33.43-2.63.06-.3-.79-1.32-.66-1.68.12-.36,1.97-2.58,1.97-2.58l-.83-4.26-2.25-.45-1.44,2.16-1.44-4.23.09-6.3-1.53-2.25-1.89-1.44-.96-3.57.36-2.52-.96-1.37-1.14.95.6,2.04-.78,1.8s.89,2.33.78,2.69c-.13.36-1.34,1.93-1.34,1.93l-4.25,1.14-2.22,2.03s-1.91,2.59-2.4,2.82c-.47.24-2.27,2.65-2.27,2.65,0,0-1.55,1.31-2.04,1.31s-2.39,2.76-2.39,2.76c0,0-1.08,2.52-1.44,2.52h-3.96l-5.04.36-4.68-2.27-5.53-4.56s-3.96-4.2-3.6-4.68c.36-.47,1.68-2.99,1.68-2.99l2.99-1.08-.47-2.76-2.04-1.33-2.27,1.21-1.8-.6-.61-4.56.49-1.91,1.91-.72s2.76.36,2.99,0c.25-.36-.59-2.52-.59-2.52l-1.21-.72s-1.8-1.8-.95-2.52l.83-.72s-.97-1.69-1.55-1.91c-.61-.25-2.29-.36-1.93-.96.36-.61,1.57-2.04,1.57-2.04,0,0,1.25-.53,1.44-.53.17,0,1.55-1.32,1.55-1.32l-1.02-2.27s-1.08,1.25-1.32,1.19c-.23-.06-1.55-1.38-1.55-1.38l1.21-2.03,1.19-.79-.72-1.31-1.8-.96s.3-1.19.53-1.38c.24-.17.24-.83-.12-1.25-.36-.42-1.55-1.19-1.55-1.19,0,0-.36-.66.17-1.15.55-.48.91-.65,1.02-.95.11-.3-.72-.96-.83-1.44-.13-.49-.25-2.88-.25-2.88l-.96-2.16,1.74-1.63,3.07-.12-.24-1.8-1.63-.61-.68-1.32,1.44-.83s.83-1.35.83-1.44.83-1.25.83-1.25l1.11.12,1.54-.91,1.58-.72,1.08-1.55s1.32-1.44,1.61-1.38c.3.06.66-1.31.66-1.31,0,0,1.27-1.21,1.44-1.21.19,0,1.57-.89,1.57-.89l-1.14-1.38s.65-.66.89-.78c.24-.13,1.44.25,1.44.06s-.17-1.68-.17-1.68l2.03-1.5,1.08,1.27,2.04-2.46,1.55.53,2.04-.29,1.38-3.07,2.94-1.74,4.98-.78,1.8-2.4,2.63,1.57,3.71,1.08,3.73-.96.59-2.63,3.24-2.29.61-5.15-3.84,3.96-3.73,2.52-3.94-1.08-3.48-.25,3.12-2.27s-1.91-4.29-1.44-4.49c.47-.19,2.4-1.87,2.99-2.35.6-.47,2.65-3.12,3.37-3.6.72-.47,5.04-.72,5.04-.72l1.44-2.4,2.63-2.16.83-1.67s1.27-1.93,1.57-1.99c.29-.06,2.33-1.61,2.33-1.61l-1.19-2.35,3.24-1.25-.24-2.04s1.38-.55,1.38-1.02-1.08-2.22-1.08-2.22l-.24-.91,1.32-3.3-.13-2.46,1.21-1.01-.59-1.68,1.99-1.17v-2.35s-.5-1.97-.32-2.01c.19-.04,2.69.22,2.84,0,.13-.23,2.61,1.02,2.61,1.02l1.48-2.33-3.21-.76s-1.68-2.39-1.71-2.48c-.03-.09.56-1.25.56-1.25l1.71.45-.14-2.16,1.67-.4.19-2.35.94-1.89-.63-1.27,2.22-1.21s.58-1.76.58-1.89c0-.14,1.71-.95,1.9-1.12.17-.19.49-2.07.58-2.26.09-.17,2.88.46,2.88.46l1.93-1.58-1.74-1.17s-1.27-1.53-1.04-1.8c.22-.27.85-1.21.85-1.21h2.48s.4-1.22.59-1.22c.17,0,2.88.4,2.88.4,0,0,1.44-.53,1.48-.72.04-.17-.76-1.65-.76-1.65l-.95-.76-1.12-.82s-1.35-.49-1.53-.36c-.19.14-1.08.59-1.08.59,0,0-1.08-.13-1.22-.32-.13-.17-.04-1.12.1-1.35.13-.22.89-1.65.89-1.65l1.99-.99.42-3.6,2.16-1.02s1.97-.42,2.22-.36c.25.06,1.61.96,1.68,1.14.06.19.06.66.53.66s1.68-.66,1.86-.83c.19-.19.91-1.99.91-1.99,0,0-.49-1.55-.49-1.86s-1.14-2.22-1.14-2.22c0,0,1.44-1.08,1.5-1.25.06-.19-1.97-1.38-1.97-1.38l-2.4.72s-.36.95-1.02,1.01c-.65.07-2.69-.29-2.69-.29,0,0-.24.95-.49,1.14-.23.17-1.55.53-1.55.53l-1.5.43-1.61.89-1.93.72-1.67.72s-.85.66-1.21.66-1.55.47-1.55.47l-.55,1.32-2.52.96-2,.58-1.18,1.21s-.09.78-.35.99c-.27.23-1.35.99-1.35.99l-.76.55s-.72-.5-.68-.86c.04-.36.17-1.97.17-1.97l1.48-2.3s1.31-1.3,1.48-1.34c.19-.06,1.44.3,1.44.3l1.14-1.48.3-1.76,2.58-.17s2.06.09,2.16-.09c.09-.19.62-1.08.62-1.08l1.76-.91.91-1.48,1.5-.27,1.47-.4,2.16-.76.3-1.38-1.5-1.44-2.04-.53h-2.27l.17-1.8-.72-1.57,1.53-1.38,1.12.96s.68,1.14.83.99c.14-.14.99-1.11.99-1.11,0,0-1.32-1.44-1.27-1.77s.91-1.41,1.02-1.44c.12-.03,1.3-.3,1.3-.3l.39-1.14,1.11.14.33,1.41,1.17,1.29s.86-1.48.86-1.63c-.03-.09-.75-1.83-.63-1.94.13-.11,1.68-2.3,1.68-2.3l1.51-.68-.09-1.8,2.16-2.16s1.48.81,1.31,1.29c-.19.5-1.35,2.25-1.35,2.25l-.4,2.16-1.63,1.94,1.18,1.61-.55,2.58.99,1.66,1.4-2.33,1.8-.19.99-1.89.76,1.17-.59,2.75s.76,1.8.89,1.93c.14.13,1.71.45,1.71.45l.4-1.89-.17-1.48,2.52.17s0-1.57.27-1.89c.26-.32,1.02-.45,1.29-.81.27-.36.5-.68.27-.99-.23-.32-1.21-.63-1.4-.72-.17-.09-1.4-.63-1.48-.81-.09-.17-.23-1.61-.23-1.61,0,0-1.48-.68-1.57-.91-.09-.23.49-1.63.49-1.63l-.22-2.82.72-.86,1.19.24s.94-.56.94-.66c-.03-.09-.22-1.55-.22-1.55,0,0,.22-1.68.39-1.71.19-.03,1.6-.63,1.6-.63l1.83-.26,2.25,1.79.03,2.53,1.02,1.28.24-2.1,1.93-.81.17-1.08s-1.48-.76-1.53-.89c-.04-.14-.17-2.35,0-2.53.19-.17.81-1.53.95-1.61.13-.09.53-1.31.81-1.31s2.52.68,2.52.68c0,0,.85,1.58.85,1.71s-.45,1.89-.17,2.12c.27.23,1.4,1.12,1.53,1.25.14.14.55-2.25.55-2.25l-1.27-1.57s0-1.71.14-1.94c.13-.22-1.58-1.93-1.58-1.93l.49-2.56-.45-1.94,1.71-1.12s.81,1.35.89,1.5c.1.13,1.5-3.07,1.5-3.07,0,0,2.82,2.11,2.88,2.35.04.22.17,1.93.17,2.06,0,.14-.68,2.71-.68,2.71,0,0,1.58,1.08,1.71,1.25.13.19,1.17,1.67,1.35,1.71.19,0,1.53-2.96,1.53-2.96l1.8-1.8-.09,2.33.22,2.48s-.26,1.31-.32,1.44c-.04.14,1.14.23,1.14.23,0,0,1.12-2.2,1.08-2.52-.06-.32-.72-2.66-.63-2.79.09-.13,1.61-.72,1.61-.72l-.27-1.63.59-1.4-1.41-.39-.39-2.16.36-.91h1.83l.85,1.47.14,1.17-.53.91,1.01.81.03,1.14-.26,1.5.81.55.69.75s.39-2.13.45-2.43c.06-.3.09-2.19.22-2.19.12,0,2.3,1.08,2.3,1.08l.25,1.24s1.19,1.44,1.41,1.5c.2.06.66.23.86.03.21-.22.83-1.32.75-1.5-.09-.19-1.41-1.9-1.61-2.01-.22-.11-2.04-1.41-2.04-1.41l-.14-2.07s-1.8-1.25-1.93-1.47c-.11-.2,1.47-1.55,1.57-1.58.09-.03.78-2.63.78-2.63l2.72,1.22.07,1.77,1.44,1.86,1.89-2.3s.36-1.87.89-1.74c.55.12,1.87.17,2.16.17s2.59-1.55,2.59-1.55l1.5-2.58,1.83-.26,1.17-.68.63-1.4-.04-1.8,1.08-.72s2.56.63,2.69,1.04c.13.4,0,.99.13,1.4.14.4.72,1.35,1.4.81.68-.53,1.44-1.84,1.54-2.06.09-.23-1.18-1.63-1.18-1.63,0,0-1.17-1.53-.66-1.84.49-.32,1.17-.89,1.48-.72.3.17,1.12.72,1.25.81.14.09,1.27-1.53,1.44-1.76.19-.22,0-.36.76-.62.76-.27,2.43-.59,2.75-.36.32.22.89.94.99,1.12.09.17,1.17-.91,1.17-.91,0,0-.91-.94-.95-1.08-.04-.13-.81-1.44-.32-1.89.5-.45,1.44-1.63,1.71-1.76.27-.13,2.03-.4,2.03-.4,0,0,3.24,1.84,3.32,2.03.09.17.32.53.13.89-.17.36-.76,1.89-.76,1.89,0,0-1.57.27-1.71.27-.13,0-.76,1.58-.62,1.63.13.04.81.22.85.62.04.4-1.76,1.76-1.76,1.76l-.45,2.13-3.66,3.54.66,2.82-.96,1.19s.25,1.27.17,1.5c-.06.25-.65,1.44-.65,1.44l-.66,1.57,1.31,1.91s1.51-.72,1.68-1.14c.19-.42.55-2.99.55-2.99l1.19-3.07,1.61-2.99,2.29-2.82,1.38-4.62,1.74-1.38,1.5-.36,1.08,1.99-.36,1.67-.85,1.57-1.5.72,1.14,1.31-.89,1.63s.12,1.8.3,2.04c.17.23.89,1.91.89,1.91l1.63-1.44,2.03-.13s-.78-3.22-.65-3.41c.12-.19,1.8-.83,1.91-1.14.12-.3.25-2.35.36-2.58.11-.24.6-.42.72-.96.11-.55-.55-1.99-.55-1.99,0,0-.29-1.19,0-1.61.3-.42-.36-1.86-.36-1.86l1.51-1.14,4.02-.06,1.08-.43s1.17.33,1.28.46c.13.12.72,1.58.72,1.58l1.32.47s.33,1.35.2,1.63c-.11.27-.78.92-1.04,1.19-.27.27-.99.75-.99.75,0,0-.36.91-.52,1.24-.14.33-1.77.59-1.77.59,0,0,.4,1.44.46,1.6.06.14-1.63,1.53-1.48,1.53.13,0,2.78-.85,2.78-.85l.1,1.8-1.58,1.53-.32,1.35,1.84.58,2.16-.85-.62-3.47.72-1.71.45-3.54,1.57-1.08s.23-.63,2.2.09l1.99.72.81,3.15.36,1.61s1.83-.91,1.96-1.15c.12-.25.89-.61.89-.61l1.38.96.11.89,1.68.27.58-.09.42.86.23.93-1.31,1.11,2.2.13,1.71.82.89.98,1.12.59,1.3,2.1s.17,2.03,0,2.03c-.19,0-2.46.49-2.46.49l-1.97,1.5-2.04,1.91-2.27.3-4.09-1.38-3.6-1.01-1.61.29v1.15l2.94,1.67,1.67,1.27,1.93,1.01-.97,1.38,2.29.36.72-1.19.92,1.41.14,1.55s.33,1.77.58,1.66c.25-.13.83-2.35.91-2.52.06-.19.14-1.24.47-1.05.33.17,1.14.94,1.14.94,0,0,.61,2.33.58,2.42.04,0,1.31-1.38,1.31-1.38,0,0,.55-.86,1.08-.56.55.3,1.27.45,1.35.53.09.1,1.07.43,1.07.43,0,0,1.42-.49,1.97.17.53.66,1.14,1.5,1.14,1.5l1.31.36,1.08-1.19-.47-2.16,2.94-1.38-.53-2.16,2.03.36,1.55,1.76,1.8.85,1.93,1.4,1.84.4.32,2.92-.76,1.18-2.43.32-2.16-.91-2.25-.95-.81,1.08s.57,1.08.72,1.12c.13.06,3.09.32,3.09.32l-.45.82,2.29.85,1.35,1.53,2.88-.4,1.35,1.53,2.43,1.18,2.06-1.5s1.63.86,1.76.99c.14.14,1.76,1.48,1.76,1.48l1.63.46.94-.63,2.35.85,1.71-.53,2.58,1.11s2.03,1.55,2.33,1.74c.3.17,2.82.89,2.82.89l3.07,2.65,4.22,2.6,2.35,2.97,3.14,1.97.99,2.71,2.88,2.61s2.52.55,2.88.91c.36.36,2.35,1.7,2.71,2.16.36.45,1.89,2.16,2.25,2.42.36.27,2.88,1.44,2.88,1.44v-2.09s1.19.65,1.38.83c.17.19.83,1.55.83,1.86s.55,1.19.96,1.44c.42.24,1.8.91,1.8.91l.36,1.91.89,1.99,1.87-.13s1.07-.78,1.67.97l.6,1.74v1.8l.89,3.11s1.32,2.04,1.32,2.4.61,1.8.61,1.8v6.48l-1.93,3.71s-3.35.96-3.47,1.57c-.13.59-.72,3.35-.72,3.35l-2.65,2.52-4.32,1.08-2.63,1.91-3.96.61-3.24,1.68-4.79-.85-4.45-2.16-4.32-1.08-6.95-2.16-6.23-2.27-2.65-3.12-2.63,2.16-2.76-2.75-2.94-.78-1.91-1.99-2.76-.24-2.88-4.85-2.46-1.38-3.3-.06,1.8,2.76s-.06,2.86.12,2.94c.19.06,2.23,1.01,2.23,1.01l2.45,3.25,2.46,1.14-.89,2.09,4.07,1.63.47,2.4,2.65,1.08,4.02,3.11,1.8,3.73-.47,2.88,1.44,3.47-1.32,1.32s-2.04,1.44-1.8,2.4c.25.95,1.91,3.6,1.91,3.6l.13,2.52.72,2.99v2.99s-.96,2.29-.13,3.01c.85.72,1.8,1.8,2.52,2.39.72.6,2.88,2.29,3.24,2.29s1.44-.85,1.44-.85c0,0,2.52,3.37,2.76,3.73.24.36,3.6,2.27,3.6,2.27l3.71,1.68,4.32.59s1.93-.23,2.29-.23,1.91-2.58,1.91-2.58l-.47-2.46-2.16-3.24-4.09.36-2.63-4.32-2.76-3.24-.47-3.24,1.91-.24.85-3.35,3.47-1.08,4.32,1.91s1.21,3.35,1.32,3.71c.11.36,3.96,2.04,3.96,2.04l3.48,1.44,5.04,2.63,5.76-.72,2.27-3.47-2.27-5.4s-3.48-5.01-3.57-5.37c-.1-.36.09-4.14.09-4.14,0,0,2.69-2.25,3.41-2.61s4.15-4.59,4.15-4.59c0,0,2.43-1.61,2.71-1.53.26.09,2.88-4.41,2.88-4.41l4.85-3.15s0-3.68,1.63-3.24c1.61.45,3.77.99,4.05,1.63.27.62,2.6,2.69,2.6,2.69l2.61-.09,3.15,2.13s-2.27,2.52-1.55,2.75c.72.24,3.71.85,3.71.85l1.8-5.4v-7.92l2.63-5.17-2.03-2.27-4.56-1.91-.89-4.37,2.61-3.25,1.25-6.38.27-4.76.53-2.95-2.27-2.88-2.33-2.88-3.48-3.3.17-2.66,3.97,2.61,3.41,2.33,3.35-1.17s4.56.27,5.47.72c.89.45,3.77,1.27,3.77,1.27l3.33,1.97,1.08,2.88,2.25,3.07.55,2.43,1.35,2.88-.99,1.61-5.22-.36-3.86.81-1.08,1.99-2.71,2.25s-.53,1.8-.45,2.35c.09.53,1.35,2.97,1.35,2.97l2.88,2.16s.09,3.24.36,3.24,2.78,3.6,2.78,3.6l4.32.99,4.06.45,4.13-1.8,1.89-4.15.36-5.84,1.15-3.12.47-1.91,5.51-.72,1.27-1.8,2.94-3.84,5.64-3.71,4.91-3.48v277.43l-4.43,1.68-2.52,2.33"/>
  <path id="path18" class="st34" d="M371.17,520.14s-1.8,3.06,0,3.51c1.8.45,2.79.99,3.33,1.08.54.09,3.15,1.17,3.15,1.17,0,0,0,.99,1.53,1.62,1.53.63,2.43,1.62,4.05,1.53,1.62-.09,4.77-.72,5.22-.81.45-.09,1.89-.81,3.51-.72,1.62.09,3.42.18,3.42-1.8s-.99-3.42-.99-3.42l-4.14.18s-4.86-.09-5.67-.45c-.81-.36-4.32-1.98-4.86-1.89-.54.09-3.33.72-3.69.63-.36-.09-3.06-1.35-3.06-1.35l-1.8.72"/>
  <path id="path20" class="st34" d="M400.14,518.52s-.81,1.62-.99,1.89c-.18.27-1.26,1.71-1.08,2.25.18.54,1.17,1.63,2.07,1.58.9-.05,1.98-.41,1.98-.41,0,0,1.53-1.84,1.53-2.45s-1.53-1.96-1.53-1.96l-1.98-.9"/>
  <path id="path22" class="st34" d="M405.44,514.65l-.81,1.17,1.71,1.35h3.15l1.62-1.71-.99-2.43-2.25-.81-2.43,2.43"/>
  <path id="path24" class="st34" d="M391.5,482.3s-1.44,1.44-1.32,2.04c.12.6,2.88,3.12,2.88,3.12,0,0,1.14,2.16,2.31.84,1.17-1.32,2.13-5.28,2.13-5.28,0,0-3.73-1.56-3.66-1.68.06-.12-2.33.96-2.33.96"/>
  <path id="path26" class="st34" d="M391.02,491.17s-2.29,2.16-.85,2.64c1.45.48,3.66.96,3.66.96l.66-1.8-1.44-1.8h-2.04"/>
  <path id="path28" class="st34" d="M397.5,492.13l-1.2,1.44s.84,2.28,1.2,2.28,2.16-1.86,2.16-1.86l-2.16-1.86"/>
  <path id="path30" class="st34" d="M382.87,504.85l1.31,2.64s2.4.48,2.76,0c.36-.48-.6-2.16-.6-2.16l-3.47-.48"/>
  <path id="path32" class="st34" d="M389.1,505.45s.23,3,.59,3.12c.37.12,2.88,0,2.88,0l-.96-3.12h-2.52"/>
  <path id="path34" class="st34" d="M347.15,491.8l-1.3,2.79,2.79,1.98,1.44-.76-.22-2.83-2.7-1.17"/>
  <path id="path36" class="st34" d="M347.96,498.24v2.7s1.8.36,2.11.36,1.53-1.17,1.44-1.53c-.09-.36-.81-1.31-.81-1.31l-2.74-.22"/>
  <path id="path38" class="st27" d="M255.72,446.67l-2.64,2.16-2.4.72.48,2.16,1.26,4.35-.12,1.38s1.05,1.38,1.14,1.53c.09.15.48,1.32.69,1.41.21.09,2.1.69,2.1.69l1.41-2.1-.24-2.88,2.1-2.22-.48-2.88.18-2.34-1.74-1.14-1.74-.84"/>
  <path id="path40" class="st29" d="M248.16,468.8l1.02-1.98,2.7.3s1.8-1.86,2.04-2.04c.24-.18,2.94-.66,2.94-.66l2.64,2.19,1.56,3.57-.72,3.12-.84,9.72-.9,3.24-2.28-1.32-1.71,1.92-2.61.6-2.16-1.2.84-3.84v-3.72l1.44-1.32-1.44-1.44.6-3.84-3.12-3.3"/>
  <path id="path42" class="st11" d="M206.96,476.66l-4.26.9s-2.16,2.1-2.16,2.28.54,1.8,1.08,1.98c.54.18,3.9.84,3.9.84,0,0,1.38,1.68,1.86,1.68s2.4-3.24,2.4-3.24l.96-3.18-2.28-.12-1.5-1.14"/>
  <path id="path44" class="st11" d="M213.2,474.74l-.24,2.34s2.22.48,2.4.54c.18.06,2.88-.96,2.88-.96l-1.68-1.5-3.36-.42"/>
  <path id="path46" class="st11" d="M194.91,484.94l-3.78,1.68.66,2.1,3.12.48,1.44-1.5-.9-3-.54.24"/>
  <path id="path48" class="st5" d="M141.23,361.45l1.38-1.98,5.22-2.22,3.78,1.26,2.88-1.26-.72-3.06,4.62-1.44,3.66,1.44,5.1-.9,3.48-1.02,1.86,2.28,1.98-1.98,5.01-1.47,2.07.63h3.78l3.06-1.71h2.43s.36-1.26.63-1.44c.27-.18,2.7-1.71,2.7-1.71v-2.61h-2.7l-2.07.45-.81-.99-1.8-.81,2.97-2.25v-2.43l3.69-.99,1.98-3.06v-2.52l1.26-1.62v-3.6l-4.05-2.43-2.97-1.08h-2.97l-.72,2.34-1.89.54-1.35-1.26,1.89-2.88-.54-2.52-.9-3.78-2.82-.66-.48-1.26,2.52.24-.78-2.22-.6-4.83-3.15-3.78-3.33-1.08-2.34-2.88-2.46-8.91,1.08-2.88-1.86-1.56-4.38-3.48h-5.04l-1.68,1.08-4.08-1.08,3.6-2.04,3.72-1.32-.6-2.88-2.88-.83,4.2-1.69.78-3.48,2.7-2.1s.36-2.7.42-2.88c.06-.18,1.5-3.66,1.5-3.66l-1.56-2.04.36-2.1-11.63-.24-1.92,1.41-2.58-.27-1.92,1.38-1.02-1.86,3.12-1.14,1.68-1.2-3.93-.87.13-1.49,2.47-.72,4.95-4.81h1.98l.36-4.86-3.42.9-4.41.27-3.69-.45-2.88-.72-2.07,2.07v4.23l-2.34,1.53,1.71,3.24-2.61.81s-2.07,2.34-1.89,2.7,1.44,1.53,1.44,1.8.09,1.8-.27,1.89c-.36.09-1.98.18-1.71.45.27.27,2.25,1.71,2.25,1.98s-.72,1.35-.99,1.53c-.27.18-1.32.72-1.29,1.08.03.36.84,1.53.84,1.53l-1.71.9s.9,2.07,1.17,2.43c.27.36,2.34,2.7,2.34,2.7,0,0,2.88-.54,2.88,0s-1.26,2.88-1.26,2.88c0,0-3.06.54-3.06,1.17s.36,2.7.72,3.06c.36.36,2.07.63,2.07.63l2.79-1.26,2.22,1.98-1.2,2.64,1.2,3-1.2,2.28v3.06l-2.16,1.68.36,2.28s.84,1.02.78,1.26c-.06.24-.12,2.46.06,2.58.18.12,2.58.3,2.58.3l-.9-1.74s3.42.84,3.9,1.02c.48.18,2.28-1.02,2.28-1.02l1.98-1.02s1.38-1.8,1.92-1.8,2.64,0,2.7.24-1.5,2.4-1.5,2.4c0,0-.48,1.38-.6,1.8s-.24,2.82-.24,2.82c0,0,1.62,1.92,1.8,2.22s2.1,1.92,2.4,1.98c.3.06-.36,5.34-.36,5.34,0,0,1.44,2.04,1.56,3,.12.96-.36,2.28-.36,2.28,0,0-.96.96-1.8,1.08-.84.12-2.76-1.32-2.76-1.32l-2.76,1.56-1.92-.84-2.76-.96-1.08-1.8-1.92,3.48,3,3-2.34,1.77s-1.17,2.16-.45,2.43c.72.27,1.89.09,1.89.09l1.53-2.79,1.53,1.53-.18,3.42-1.44,3.15-2.68,3.64-3.06.11-1.96,1.03.18,2.41s1.01.76,1.08.85c.07.09,1.82.92,1.82.92,0,0,1.17-.83,1.3-.92.14-.09,2.11-.83,2.11-.83l5.06,2.86,1.62,2.25,2.79-.09,1.53-2.07,2.34-.27,1.98-2.52-.36,2.79-2.79,2.61s.09,1.98-.54,2.07c-.63.09-9-.81-9-.81l-3.42,2.79-1.35,2.34-.93,3.15-2.52,1.44-1.56,1.8-1.8,1.44-.12,3.12,3.42-.78"/>
  <path id="path50" class="st5" d="M146.63,303.34l-2.61,2.88s-.27,2.07,0,2.43c.27.36,3.51-.45,3.51-.45,0,0,2.16-1.62,2.07-2.16-.09-.54-2.97-2.7-2.97-2.7"/>
  <path id="path52" class="st5" d="M132.15,248.96l-1.48,1.31.4,1.75-1.66.85-1.98,2.38-2.34-.9v-2.97s-.49-2.61,0-2.97c.49-.36,2.56-1.53,2.56-1.53,0,0,1.66-1.84,1.98-1.98s1.62-1.21,1.62-1.21l1.8.77s.22,1.48,0,1.66c-.23.18-.09,1.62-.14,1.75-.04.13-.76,1.08-.76,1.08"/>
  <path id="path54" class="st5" d="M133.15,264.3h-1.49s-.36-2.52-.54-2.61c-.18-.09-1.53-.45-1.53-.45l.72-3.28,1.39-1.48s1.21,1.62,1.21,1.8-.16.99.24,1.21c.39.23,1.52,1.71,1.52,1.71l-.9,1.57-.62,1.53"/>
  <path id="path56" class="st5" d="M131.83,271.54l-.36,1.53,1.98,1.57s-1.53,1.08-1.66,1.17c-.13.09-2.34,1.84-.72,2.34,1.62.49,2.74.81,3.19.54.45-.27,1.03-1.49,1.31-1.66.27-.18.54-1.52.54-1.86s-.36-2.59-.54-2.77c-.18-.18-3.44-2.07-3.44-2.07l-.29,1.21"/>
  <path id="path58" class="st5" d="M132.96,282.25c-.13,0-2.83,1.12-2.83,1.12l.35,2.16,2.12,1.71s1.35.54,1.62,0c.27-.54.72-2.74.67-2.88-.05-.13-1.93-2.11-1.93-2.11"/>
  <path id="path60" class="st5" d="M137.64,283.46l-.81,2.61s-.36,1.35-.72,1.8c-.36.45-.09,3.33,0,3.6.09.27,2.07,0,2.16,0s.45-1.8.54-2.07c.09-.27,1.8,0,1.8,0,0,0,2.16.09,1.62-.99-.54-1.08-1.35-2.43-1.35-2.43l.72-2.97-2.48-.76-1.48,1.21"/>
  <path id="path62" class="st5" d="M122.7,258.27l.72,2.7s-1.89,1.98-1.89,2.43v3.51s3.61,1.08,3.33.81c-.27-.27.01-3.42.01-3.42,0,0,.61-3.51.79-3.91.18-.41,0-2.11,0-2.11l-2.03-.99-.94.99"/>
  <path id="path64" class="st5" d="M154.73,236.32l1.89,3.33s2.25,2.16,2.97,1.8c.72-.36,1.98-3.42,1.53-3.78-.45-.36-3.41-.81-3.15-1.35.27-.54,1.89-1.26,2.7-2.07.81-.81,1.26-1.08,1.26-1.44s1.26-.72-.63-1.26c-1.89-.54-2.7,0-3.24,0s-1.17.36-1.89,1.44c-.72,1.08-1.44,3.33-1.44,3.33"/>
  <path id="path66" class="st5" d="M170.44,213.26l-1.56,3,.78,3,1.98,2.76s-1.56,4.08.6,3c2.16-1.08,3.36-6.36,3.24-7.68-.12-1.32-.12-3.48.72-4.08.84-.6,2.16-3.96,1.56-4.8-.6-.84-.72-1.68-2.16-1.68s-2.76.48-3.36,1.68c-.6,1.2-1.8,4.8-1.8,4.8"/>
  <path id="path68" class="st5" d="M127.92,191.43l-4.28-3.78v-5.4s3.56-3.78,4.28-3.78,3.73.18,4.21,1.8c.47,1.62.97,3.06,0,3.96-.97.9-2.32,2.7-2.54,3.96-.23,1.26-1.66,3.24-1.66,3.24"/>
  <path id="path70" class="st5" d="M124.87,194.85l1.97,3.06s3.49,1.62,3.64,1.08c.14-.54-.68-1.44,0-2.7.68-1.26-4.73-3.06-4.73-3.06l-.88,1.62"/>
  <path id="path72" class="st13" d="M137.1,303.34l-.99,3.35-3.54,1.68s-1.11,2.4-1.11,2.76.72,2.75,1.05,3.24c.33.47-1.05,2.88-2.03,4.07s2.03,4.32,2.03,4.32l-.92,6.72s-2.76,5.51-3.37,5.63c-.59.13-4.43-.72-4.43-.72l-1.91,2.16-4.2,1.44-3.6,2.4-5.64,2.88h-4.79c-.36,0,.83-2.88.83-2.88l-3.35-2.63-1.91-4.45,3.83-1.67.36-3.01,1.8-1.91s.49-2.99.66-3.48c.19-.47,3.54-1.19,3.54-1.19l-1.55-2.4-4.09-1.55s-1.91-2.99-1.91-3.12c0-.12,1.55-1.67,1.55-2.27s-1.67-.72-2.52-1.08c-.83-.36,1.32-1.68,1.32-1.68l1.91-2.63v-2.4c0-.83,2.65,0,2.65,0l3.96,1.15,2.63-.91,2.88-1.8v-1.01l-3.71-1.27,1.55-1.33-1.55-2.27,2.63-1.8,1.32-2.52,4.79-1.57,1.91-2.03,4.09,2.88,3.21.95,2.03-.95,3.43,3.24v4.07l1.17,3.6"/>
  <path id="path74" class="st7" d="M277.79,300.76l-4.08-.54s-1.8-.96-1.98-1.44-.48-2.82,0-2.82,2.68.24,2.9.42c.22.18,1.12.06,1.72.54.6.48,1.26,2.22,1.44,2.46s0,1.38,0,1.38"/>
  <path id="path76" class="st7" d="M281.45,296.92c-.42.12-2.64.3-2.64.3,0,0-2.7-2.58-2.7-2.82s.06-2.1-.3-2.22-3.36,0-3.36,0c0,0-1.18-2.58-.98-2.76.2-.18-1.06-1.8-1.06-2.4s1.38-1.98,1.8-2.22c.42-.24,2.28-2.04,2.46-2.34.18-.3,1.86-1.02,2.1-.78.24.24,1.1,3.06,1.1,3.06l1.3-2.22s-1.38-3.18-.72-3.36c.66-.18,2.28.48,2.58.72.3.24.9.84,1.32,1.38.42.54,1.26,2.1,1.5,2.4s.54,2.04,0,2.22c-.54.18-2.22.78-2.28.96-.06.18.48,1.86.54,2.22s1.32,1.62.72,2.16c-.6.54-1.5,1.32-1.62,1.62s1.2,2.22,1.32,2.4c.12.18-1.08,1.68-1.08,1.68"/>
  <path id="path78" class="st29" d="M16.94,136.96h-5.34s-2.72,1.21-3.13,1.31c-.4.1-3.23,1.01-3.73,1.01s-2.12,2.62-1.81,2.82c.3.2,2.52,0,2.52,0,0,0,2.62-.71,3.23-.71s2.82.3,2.82.3c0,0,.71.81,1.21,2.02.5,1.21,1.41,2.82,1.82,2.72.4-.1,2.02-1.81,2.42-1.51.4.3.2,2.32,0,2.72-.2.4-1.41.71-.5,1.41.91.71,2.22,1.51,2.22,1.51,0,0-.5.81-1.11,1.11-.6.3-4.44,1.81-4.44,1.81,0,0-2.92-1.92-3.02,0-.1,1.92-.44,2.92.69,3.43,1.13.5,4.76.71,5.67,0,.91-.71,3.93-1.61,4.74-1.31.81.3,2.42,1.92,3.43,2.72,1.01.81,2.12,1.91,3.73,2.72,1.61.81,5.34,2.02,6.25,2.32.91.3,3.33-.4,4.13,0,.81.4,4.94-1.92,5.14-2.42.2-.5,1.01-3.23,2.52-3.23s5.24-.5,5.24-.5l5.85-6.25,3.83-1.61,2.92.1s0-2.72.61-3.02c.6-.3,2.92-2.02,2.92-2.02l.5-2.52,1.92-.81s1.81-2.42,1.81-2.82-.81-3.33-.81-3.33c0,0,1.31-3.73.81-4.44-.5-.71-.61-1.11-.91-1.31s-2.62-2.02-2.62-2.02h-3.33l1.11-4.34-2.22-2.32s-1.51-1.51-.91-2.12c.61-.61,2.22-2.82,2.52-2.92s-2.22,0-2.22,0l-1.51,1.31-2.72.4s-.5-1.91-.61-2.22c-.1-.3-1.81-2.02-2.32-2.02s-3.02,0-3.13.81c-.1.81-.3,1.92,0,2.42.3.5.3,3.23.3,3.23l-3.33,1.11s-1.21-3.73-1.71-3.23c-.5.5-1.31,2.82-1.61,3.13-.3.3-.2,2.62-1.01,2.32-.81-.3-1.61-3.73-2.22-3.83-.61-.1-1.11-.5-1.61,0s-1.41.5-1.11,1.41c.3.91-1.31,1.41-1.31,1.41,0,0-1.01-1.61-1.51-2.02-.5-.4-1.31-1.31-2.22-.71-.91.6-1.11,1.31-1.61,1.81-.5.5-.91.5-.71,2.72.2,2.22-.5,2.72-.5,2.72,0,0-1.51.61-1.92-1.61-.4-2.22-.2-4.54-1.11-4.64-.91-.1-1.11,0-2.02.5-.91.5-1.71.81-1.71,1.61s1.01.3.91,3.53c-.1,3.23-.71,4.94-.71,4.94,0,0-.71-1.51-1.31-2.32-.6-.81-.81-1.51-1.61-.6-.81.91-1.41.5-.81,1.81.6,1.31,1.82,3.23.71,3.83-1.11.61-2.02.3-2.02.3,0,0-2.12-3.53-2.12-4.44s-.1-1.71-.1-1.71l-1.21-1.61.91-4.74s-1.26-2.62-1.87-3.48c-.61-.86-1.61-2.32-2.62-2.87-1.01-.55-1.46-1.31-2.17-1.21-.71.1-.71.15-1.97.5-1.26.35-1.16-.71-1.92.86-.76,1.56.76,2.82.76,2.82l2.42-.25,1.36-.15s1.26,1.92.35,2.57c-.91.66-1.61-.05-.76,1.71.86,1.76.5,2.07.5,2.07l-2.12-.66s-.91-1.31-1.51-1.87c-.6-.55-.66-1.41-1.46-1.97s-.6-1.66-1.71-1.06c-1.11.6-1.31.96-1.76,1.71-.45.76-.91,1.56-.91,1.56,0,0,.2,3.08.05,3.38-.15.3,1.92,1.66,1.92,1.66,0,0-1.21,1.66-2.19,1.21-.98-.45-1.97.3-1.97.3,0,0-1.29.68-1.29,1.59s.45,1.81.83,2.12c.38.3.91.07,1.66,0,.76-.08,1.74.23,2.19.07.45-.15,1.13-.91,1.51-1.06.38-.15,1.97-.76,2.95-1.13.98-.38,2.87-.45,2.87-.45,0,0,3.48.53,3.71.76.23.23.83.08.76.76-.08.68-.38,1.36-.38,1.36,0,0-2.42,1.36-2.95,1.66-.53.3-1.66,0-1.29.76s1.44,1.36,2.27,1.44c.83.08,1.44.23,1.74.3.3.07,1.06.81,1.06.81"/>
  <path id="path80" class="st26" d="M334.88,252.84l-2.64,2.28s-3,.96-3.12,1.92c-.12.96-1.2,3.84-.96,4.56.24.72,1.08,4.32,1.44,4.68.36.36.96,1.92.96,1.92l2.4-4.56s3.48-1.32,2.76-2.4c-.72-1.08-1.92-2.97-1.92-2.97l2.02-2.55.98-2.88h-1.92"/>
  <path id="path82" class="st26" d="M342.38,214.64l-2.52,2.61,2.97,2.79,4.32,1.08s1.26-2.97,1.35-3.24c.09-.27-2.25-1.98-2.52-2.16-.27-.18-3.6-1.08-3.6-1.08"/>
  <path id="path84" class="st15" d="M581.97,54.93l-6.36,3.24-3.96-3.24v-5.64l1.44-8.28s2.52-1.2,3.72-1.08c1.2.12,5.64-.84,6.96.84,1.32,1.68,2.4,3.48,2.4,3.48,0,0,.72,3.91.72,4.71s-3,4.64-3,4.64l-1.92,1.32"/>
  <path id="path86" class="st27" d="M448.53,531.21s1.89-1.8,3.24-2.34,2.34.36,3.24-1.08c.9-1.44-.45-1.8,0-3.06.45-1.26,8.46-2.92,2.34-3.35-6.12-.43-6.93,0-6.93,0,0,0-4.14,3.26-5.13,3.35-.99.09-2.61.69-2.97,1.47-.36.78-1.35,1.77-.45,2.76.9.99,4.32,2.7,4.86,3.06s1.8-.81,1.8-.81"/>
  <path id="path88" class="st12" d="M431.11,32.86c.09.1,1.07.43,1.07.43v3.17s-2.17,2.94-2.45,2.94-2.96-.72-2.96-.72l-1.17,2.07-2.71,2.07-3.33,1.17-.91,4.51s-1.79,2.42-2.06,2.42-1.89-.53-2.35-1.07c-.45-.55.19-3.25.36-3.79.19-.53,1.99-2.69,2.26-3.07.26-.35,1.25-2.51,1.25-3.05s-.45-2.61-.53-2.97c-.1-.36-2.35-2.25-2.71-2.35-.36-.09-5.93-3.33-6.2-3.6-.27-.27-1.54-2.69-1.54-2.69l-3.68-.81-2.79,2.16-6.56,2.06-1.97,3.15-1.54,3.15-.78,4.4v9.72l-2.16,2.04s-2.16,1.44-2.39,1.91c-.25.48-1.08,2.04-1.08,2.04,0,0-.36,3.11-1.32,2.75s-1.19-2.03-1.44-2.52c-.24-.47-2.63-.83-3.12-.95-.47-.13-2.99-2.04-2.99-2.04l-1.8,1.44-3.35,1.55-2.29-.36-4.49-.83s-2.46-3.43-2.71-3.71c-.23-.3-2.16-4.62-2.16-4.62l-1.86-3.6s-2.82-1.14-3.24-1.14-1.86,2.94-1.86,2.94l.89,1.5s-.78,1.5-1.01,1.5c-.24,0-1.32-1.08-1.32-1.08l-1.8.75-3.79,1.54.99,2.06v3.43l-3.15,4.85,2.43,1.9-1.34,1.61-7.66-2.88-3.14-.36-2.07-1.8-2.25.89.42,7.8-1.68,3.37-1.86.65-3.12-2.46-5.01,5.54-.32,2.61-1.57,3.44s-2.27,1.55-2.52,1.91c-.24.36.36,3.35.47,3.71.13.36,1.57,2.4,1.57,2.4l.47,3.48-4.43,3.35-4.39,6.3,1.27,3.6-1.99,3.41-6.65,1.63,1.27,2.88-1.27,5.04v7.54l-6.12,11.7-.36,3.69,3.15,1.8.72,4.15-2.19,4.88-2.88-1.55-4.2-.48-5.15,5.76.59,2.99s-2.63,2.99-3.11,3.35c-.49.36.23,3.24.23,3.24l1.32,2.88-1.32,4.56-.23,5.76,2.39,2.99-.59,5.53-.85,4.91,3.43,1.57,2.58,3.12-.91,5.86s-3.14-.27-3.28-.27c-.13,0-1.61,1.08-1.61,1.08l1.35,1.57-1.22,1.8s1.35,1.27,1.54,1.63c.17.36.53,3.96.89,4.23.36.26.17,3.94,0,3.94s-3.15,4.87-3.15,4.87l-1.8,1.71s-1.97,2.69-2.07,3.05c-.09.36.82,1.35.82,1.35l.17,3.41,1.08,2.16-1.61,3.25h-2.16l-.63-1.54-.45-1.34-.82-1.18h-3.23l-.96-3.57.36-2.52-.96-1.37-1.14.95.6,2.04-.78,1.8s.89,2.33.78,2.69c-.13.36-1.34,1.93-1.34,1.93l-4.25,1.14-2.22,2.03s-1.91,2.59-2.4,2.82c-.47.24-2.27,2.65-2.27,2.65,0,0-1.55,1.31-2.04,1.31s-2.39,2.76-2.39,2.76c0,0-1.08,2.52-1.44,2.52h-3.96l-5.04.36-4.68-2.27-5.53-4.56s-3.96-4.2-3.6-4.68c.36-.47,1.68-2.99,1.68-2.99l2.99-1.08-.47-2.76-2.04-1.33-2.27,1.21-1.8-.6-.61-4.56.49-1.91,1.91-.72s2.76.36,2.99,0c.25-.36-.59-2.52-.59-2.52l-1.21-.72s-1.8-1.8-.95-2.52l.83-.72s-.97-1.69-1.55-1.91c-.61-.25-2.29-.36-1.93-.96.36-.61,1.57-2.04,1.57-2.04,0,0,1.25-.53,1.44-.53.17,0,1.55-1.32,1.55-1.32l-1.02-2.27s-1.08,1.25-1.32,1.19c-.23-.06-1.55-1.38-1.55-1.38l1.21-2.03,1.19-.79-.72-1.31-1.8-.96s.3-1.19.53-1.38c.24-.17.24-.83-.12-1.25-.36-.42-1.55-1.19-1.55-1.19,0,0-.36-.66.17-1.15.55-.48.91-.65,1.02-.95.11-.3-.72-.96-.83-1.44-.13-.49-.25-2.88-.25-2.88l-.96-2.16,1.74-1.63,3.07-.12-.24-1.8-1.63-.61-.68-1.32,1.44-.83s.83-1.35.83-1.44.83-1.25.83-1.25l1.11.12,1.54-.91,1.58-.72,1.08-1.55s1.32-1.44,1.61-1.38c.3.06.66-1.31.66-1.31,0,0,1.27-1.21,1.44-1.21.19,0,1.57-.89,1.57-.89l-1.14-1.38s.65-.66.89-.78c.24-.13,1.44.25,1.44.06s-.17-1.68-.17-1.68l2.03-1.5,1.08,1.27,2.04-2.46,1.55.53,2.04-.29,1.38-3.07,2.94-1.74,4.98-.78,1.8-2.4,2.63,1.57,3.71,1.08,3.73-.96.59-2.63,3.24-2.29.61-5.15-3.84,3.96-3.73,2.52-3.94-1.08-3.48-.25,3.12-2.27s-1.91-4.29-1.44-4.49c.47-.19,2.4-1.87,2.99-2.35.6-.47,2.65-3.12,3.37-3.6.72-.47,5.04-.72,5.04-.72l1.44-2.4,2.63-2.16.83-1.67s1.27-1.93,1.57-1.99c.29-.06,2.33-1.61,2.33-1.61l-1.19-2.35,3.24-1.25-.24-2.04s1.38-.55,1.38-1.02-1.08-2.22-1.08-2.22l-.24-.91,1.32-3.3-.13-2.46,1.21-1.01-.59-1.68,1.99-1.17v-2.35s-.5-1.97-.32-2.01c.19-.04,2.69.22,2.84,0,.13-.23,2.61,1.02,2.61,1.02l1.48-2.33-3.21-.76s-1.68-2.39-1.71-2.48c-.03-.09.56-1.25.56-1.25l1.71.45-.14-2.16,1.67-.4.19-2.35.94-1.89-.63-1.27,2.22-1.21s.58-1.76.58-1.89c0-.14,1.71-.95,1.9-1.12.17-.19.49-2.07.58-2.26.09-.17,2.88.46,2.88.46l1.93-1.58-1.74-1.17s-1.27-1.53-1.04-1.8c.22-.27.85-1.21.85-1.21h2.48s.4-1.22.59-1.22c.17,0,2.88.4,2.88.4,0,0,1.44-.53,1.48-.72.04-.17-.76-1.65-.76-1.65l-.95-.76-1.12-.82s-1.35-.49-1.53-.36c-.19.14-1.08.59-1.08.59,0,0-1.08-.13-1.22-.32-.13-.17-.04-1.12.1-1.35.13-.22.89-1.65.89-1.65l1.99-.99.42-3.6,2.16-1.02s1.97-.42,2.22-.36c.25.06,1.61.96,1.68,1.14.06.19.06.66.53.66s1.68-.66,1.86-.83c.19-.19.91-1.99.91-1.99,0,0-.49-1.55-.49-1.86s-1.14-2.22-1.14-2.22c0,0,1.44-1.08,1.5-1.25.06-.19-1.97-1.38-1.97-1.38l-2.4.72s-.36.95-1.02,1.01c-.65.07-2.69-.29-2.69-.29,0,0-.24.95-.49,1.14-.23.17-1.55.53-1.55.53l-1.5.43-1.61.89-1.93.72-1.67.72s-.85.66-1.21.66-1.55.47-1.55.47l-.55,1.32-2.52.96-2,.58-1.18,1.21s-.09.78-.35.99c-.27.23-1.35.99-1.35.99l-.76.55s-.72-.5-.68-.86c.04-.36.17-1.97.17-1.97l1.48-2.3s1.31-1.3,1.48-1.34c.19-.06,1.44.3,1.44.3l1.14-1.48.3-1.76,2.58-.17s2.06.09,2.16-.09c.09-.19.62-1.08.62-1.08l1.76-.91.91-1.48,1.5-.27,1.47-.4,2.16-.76.3-1.38-1.5-1.44-2.04-.53h-2.27l.17-1.8-.72-1.57,1.53-1.38,1.12.96s.68,1.14.83.99c.14-.14.99-1.11.99-1.11,0,0-1.32-1.44-1.27-1.77s.91-1.41,1.02-1.44c.12-.03,1.3-.3,1.3-.3l.39-1.14,1.11.14.33,1.41,1.17,1.29s.86-1.48.86-1.63c-.03-.09-.75-1.83-.63-1.94.13-.11,1.68-2.3,1.68-2.3l1.51-.68-.09-1.8,2.16-2.16s1.48.81,1.31,1.29c-.19.5-1.35,2.25-1.35,2.25l-.4,2.16-1.63,1.94,1.18,1.61-.55,2.58.99,1.66,1.4-2.33,1.8-.19.99-1.89.76,1.17-.59,2.75s.76,1.8.89,1.93c.14.13,1.71.45,1.71.45l.4-1.89-.17-1.48,2.52.17s0-1.57.27-1.89c.26-.32,1.02-.45,1.29-.81.27-.36.5-.68.27-.99-.23-.32-1.21-.63-1.4-.72-.17-.09-1.4-.63-1.48-.81-.09-.17-.23-1.61-.23-1.61,0,0-1.48-.68-1.57-.91-.09-.23.49-1.63.49-1.63l-.22-2.82.72-.86,1.19.24s.94-.56.94-.66c-.03-.09-.22-1.55-.22-1.55,0,0,.22-1.68.39-1.71.19-.03,1.6-.63,1.6-.63l1.83-.26,2.25,1.79.03,2.53,1.02,1.28.24-2.1,1.93-.81.17-1.08s-1.48-.76-1.53-.89c-.04-.14-.17-2.35,0-2.53.19-.17.81-1.53.95-1.61.13-.09.53-1.31.81-1.31s2.52.68,2.52.68c0,0,.85,1.58.85,1.71s-.45,1.89-.17,2.12c.27.23,1.4,1.12,1.53,1.25.14.14.55-2.25.55-2.25l-1.27-1.57s0-1.71.14-1.94c.13-.22-1.58-1.93-1.58-1.93l.49-2.56-.45-1.94,1.71-1.12s.81,1.35.89,1.5c.1.13,1.5-3.07,1.5-3.07,0,0,2.82,2.11,2.88,2.35.04.22.17,1.93.17,2.06,0,.14-.68,2.71-.68,2.71,0,0,1.58,1.08,1.71,1.25.13.19,1.17,1.67,1.35,1.71.19,0,1.53-2.96,1.53-2.96l1.8-1.8-.09,2.33.22,2.48s-.26,1.31-.32,1.44c-.04.14,1.14.23,1.14.23,0,0,1.12-2.2,1.08-2.52-.06-.32-.72-2.66-.63-2.79.09-.13,1.61-.72,1.61-.72l-.27-1.63.59-1.4-1.41-.39-.39-2.16.36-.91h1.83l.85,1.47.14,1.17-.53.91,1.01.81.03,1.14-.26,1.5.81.55.69.75s.39-2.13.45-2.43c.06-.3.09-2.19.22-2.19.12,0,2.3,1.08,2.3,1.08l.25,1.24s1.19,1.44,1.41,1.5c.2.06.66.23.86.03.21-.22.83-1.32.75-1.5-.09-.19-1.41-1.9-1.61-2.01-.22-.11-2.04-1.41-2.04-1.41l-.14-2.07s-1.8-1.25-1.93-1.47c-.11-.2,1.47-1.55,1.57-1.58.09-.03.78-2.63.78-2.63l2.72,1.22.07,1.77,1.44,1.86,1.89-2.3s.36-1.87.89-1.74c.55.12,1.87.17,2.16.17s2.59-1.55,2.59-1.55l1.5-2.58,1.83-.26,1.17-.68.63-1.4-.04-1.8,1.08-.72s2.56.63,2.69,1.04c.13.4,0,.99.13,1.4.14.4.72,1.35,1.4.81.68-.53,1.44-1.84,1.54-2.06.09-.23-1.18-1.63-1.18-1.63,0,0-1.17-1.53-.66-1.84.49-.32,1.17-.89,1.48-.72.3.17,1.12.72,1.25.81.14.09,1.27-1.53,1.44-1.76.19-.22,0-.36.76-.62.76-.27,2.43-.59,2.75-.36.32.22.89.94.99,1.12.09.17,1.17-.91,1.17-.91,0,0-.91-.94-.95-1.08-.04-.13-.81-1.44-.32-1.89.5-.45,1.44-1.63,1.71-1.76.27-.13,2.03-.4,2.03-.4,0,0,3.24,1.84,3.32,2.03.09.17.32.53.13.89-.17.36-.76,1.89-.76,1.89,0,0-1.57.27-1.71.27-.13,0-.76,1.58-.62,1.63.13.04.81.22.85.62.04.4-1.76,1.76-1.76,1.76l-.45,2.13-3.66,3.54.66,2.82-.96,1.19s.25,1.27.17,1.5c-.06.25-.65,1.44-.65,1.44l-.66,1.57,1.31,1.91s1.51-.72,1.68-1.14c.19-.42.55-2.99.55-2.99l1.19-3.07,1.61-2.99,2.29-2.82,1.38-4.62,1.74-1.38,1.5-.36,1.08,1.99-.36,1.67-.85,1.57-1.5.72,1.14,1.31-.89,1.63s.12,1.8.3,2.04c.17.23.89,1.91.89,1.91l1.63-1.44,2.03-.13s-.78-3.22-.65-3.41c.12-.19,1.8-.83,1.91-1.14.12-.3.25-2.35.36-2.58.11-.24.6-.42.72-.96.11-.55-.55-1.99-.55-1.99,0,0-.29-1.19,0-1.61.3-.42-.36-1.86-.36-1.86l1.51-1.14,4.02-.06,1.08-.43s1.17.33,1.28.46c.13.12.72,1.58.72,1.58l1.32.47s.33,1.35.2,1.63c-.11.27-.78.92-1.04,1.19-.27.27-.99.75-.99.75,0,0-.36.91-.52,1.24-.14.33-1.77.59-1.77.59,0,0,.4,1.44.46,1.6.06.14-1.63,1.53-1.48,1.53.13,0,2.78-.85,2.78-.85l.1,1.8-1.58,1.53-.32,1.35,1.84.58,2.16-.85-.62-3.47.72-1.71.45-3.54,1.57-1.08s.23-.63,2.2.09l1.99.72.81,3.15.36,1.61s1.83-.91,1.96-1.15c.12-.25.89-.61.89-.61l1.38.96.11.89,1.68.27.58-.09.42.86.23.93-1.31,1.11,2.2.13,1.71.82.89.98,1.12.59,1.3,2.1s.17,2.03,0,2.03c-.19,0-2.46.49-2.46.49l-1.97,1.5-2.04,1.91-2.27.3-4.09-1.38-3.6-1.01-1.61.29v1.15l2.94,1.67,1.67,1.27,1.93,1.01-.97,1.38,2.29.36.72-1.19.92,1.41.14,1.55s.33,1.77.58,1.66c.25-.13.83-2.35.91-2.52.06-.19.14-1.24.47-1.05.33.17,1.14.94,1.14.94,0,0,.61,2.33.58,2.42.04,0,1.31-1.38,1.31-1.38,0,0,.55-.86,1.08-.56.55.3,1.27.45,1.35.53"/>
  <path id="path90" class="st15" d="M373.87,109.92l-1.8-2.16,1.97-4.66,1.51-5.23-3.48-8.1,1.97-4.32-3.41-1.78v-7.2l2.35-3.25s-3.15-4.22-4.06-5.48c-.89-1.25-2.49-4.65-2.49-4.65l-5.51.49-3.35-2.04-2.52-3.84-3.6-7.61c-.24,0-1.32-1.08-1.32-1.08l-1.8.75-3.79,1.54.99,2.06v3.43l-3.15,4.85,2.43,1.9-1.34,1.61-7.66-2.88-3.14-.36-2.07-1.8-2.25.89.42,7.8-1.68,3.37-1.86.65-3.12-2.46-5.01,5.54-.32,2.61-1.57,3.44s-2.27,1.55-2.52,1.91c-.24.36.36,3.35.47,3.71.13.36,1.57,2.4,1.57,2.4l.47,3.48-4.43,3.35-4.39,6.3,1.27,3.6-1.99,3.41-6.65,1.63,1.27,2.88-1.27,5.04v7.54l-6.12,11.7-.36,3.69,3.15,1.8.72,4.15-2.19,4.88-2.88-1.55-4.2-.48-5.15,5.76.59,2.99s-2.63,2.99-3.11,3.35c-.49.36.23,3.24.23,3.24l1.32,2.88-1.32,4.56-.23,5.76,2.39,2.99-.59,5.53-.85,4.91,3.43,1.57,2.58,3.12-.91,5.86s-3.14-.27-3.28-.27c-.13,0-1.61,1.08-1.61,1.08l1.35,1.57-1.22,1.8s1.35,1.27,1.54,1.63c.17.36.53,3.96.89,4.23.36.26.17,3.94,0,3.94s-3.15,4.87-3.15,4.87l-1.8,1.71s-1.97,2.69-2.07,3.05c-.09.36.82,1.35.82,1.35l.17,3.41,1.08,2.16-1.61,3.25h-2.16l-.63-1.54-.45-1.34-.82-1.18h-3.23l1.89,1.44,1.53,2.25-.09,6.3,1.44,4.23,1.44-2.16,2.25.45.83,4.26s-1.86,2.22-1.97,2.58c-.13.36.72,1.38.66,1.68-.06.3-.6,2.27-.43,2.63.19.36,2.29,2.76,2.46,2.99.19.25-.47,3.12-.47,3.12l2.16,2.46,1.61,4.32,2.04,2.33-.83,3.43-.61,2.82,2.52,1.8,1.14,3.66.06,3.05.66,2.23,2.52.72,2.58-.72s1.57.72,2.16.78c.6.06,2.65-1.27,2.65-1.27,0,0,.23-2.99.11-3.48-.11-.47-.11-2.69-.11-2.69l2.27-3.48,4.26-.36,5.45,1.02s1.63-1.02,1.86-1.31c.24-.3.49-2.23.49-2.23l.53-2.39,1.02-2.16,1.02.42.17,1.97-.47,2.46.11,1.32,1.68-.55,3.6-10.91.83-3.6.07-1.61-1.44.11-1.44,3.24-.79,3.35s-1.44.84-1.61.72c-.19-.11.53-1.25.53-1.25l-.29-2.16-.07-2.65.91-1.74s-.66-1.91-.66-2.09c0-.19.96-1.57.96-1.57l-.36-2.27.48-1.44v-2.71c0-.13,1.25-1.93,1.17-2.16-.09-.22-.85-1.89-.85-1.89l.94-1.84-.35-2.52,1.34-.72,1.48-1.67,2.16-.22,2.07-2.48,1.67.23,1.44-1.27,1.4-.99.79-3.12,1.97-1.51-.17-2.03,2.03-1.68-.72-1.86,1.57-1.44-.24-1.8-1.44-2.1-2.39-.89.53-2.52-.97-1.27-1.31-.59-1.02-1.81-1.38-1.44-1.32.3-.83-2.03-1.44-.06s-.99-1.44-.99-1.9-.27-1.8-.36-2.16-.98-2.61-.98-2.97.45-2.07.72-2.79c.26-.72-.46-1.8-.72-2.07-.27-.26,1.44-3.77,1.78-3.94.37-.19,1.09-.99,1.09-.99,0,0-1.18-1.89-1.44-2.43-.27-.55,1.07-3.43,1.07-3.43l.91-3.14-2.07-2.43.63-2.6,2.79-.36,1.97-.72.63-2.52.81-1.99,1.99-.53s.36-3.07.45-3.33c.09-.27.91-2.62.91-2.62l2.88.19,1.78-.82.46-2.33,1.97-.72,1.8-1.89,2.07-1.63,1.44-.63,1.27-1.79,2.09-.66,3.24-2.04.36-3.77,2.4-4.26,2.52-1.44-1.68-3.96-1.19-3.96.6-3.37,2.27-4.19-1.44-2.4,3.6-2.4,3.35-1.44.49-2.75,2.16-2.88,6.12,1.91,4.19-.97,4.32.49-3.54-3.31-1.61-5.76"/>
  <path id="path92" class="st31" d="M430.72,164.69l-4.32-3.12-2.4-5.04,4.32-4.32-2.39-6.72h-2.65l.13-4.91,1.44-2.52-1.44-1.21s-3.48-1.44-3.37-2.16c.13-.72,1.8-5.04,1.8-5.04l-1.04-5.4,1.64-3.96,2.27-1.19-2.46-9.72-2.33-1.8-.55-4.68-2.33-5.57-.36-3.97,7.01-11.69-2.89-5.04-2.32-5.76-4.87-1.44-2.51-5.4,1.37-5.28,1.8-2.63-1.91-2.52,2.92-3.13c-.43-.19-.84-.41-1.04-.64-.45-.55.19-3.25.36-3.79.19-.53,1.99-2.69,2.26-3.07.26-.35,1.25-2.51,1.25-3.05s-.45-2.61-.53-2.97c-.1-.36-2.35-2.25-2.71-2.35-.36-.09-5.93-3.33-6.2-3.6-.27-.27-1.54-2.69-1.54-2.69l-3.68-.81-2.79,2.16-6.56,2.06-1.97,3.15-1.54,3.15-.78,4.4v9.72l-2.16,2.04s-2.16,1.44-2.39,1.91c-.25.48-1.08,2.04-1.08,2.04,0,0-.36,3.11-1.32,2.75s-1.19-2.03-1.44-2.52c-.24-.47-2.63-.83-3.12-.95-.47-.13-2.99-2.04-2.99-2.04l-1.8,1.44-3.35,1.55-2.29-.36-4.49-.83s-2.46-3.43-2.71-3.71c-.23-.3-2.16-4.62-2.16-4.62l-1.86-3.6s-2.82-1.14-3.24-1.14-1.86,2.94-1.86,2.94l.89,1.5s-.78,1.5-1.01,1.5l3.6,7.61,2.52,3.84,3.35,2.04,5.51-.49s1.6,3.4,2.49,4.65c.91,1.27,4.06,5.48,4.06,5.48l-2.35,3.25v7.2l3.41,1.78-1.97,4.32,3.48,8.1-1.51,5.23-1.97,4.66,1.8,2.16,1.61,5.76,3.54,3.31,2.04,1.67,3.48,1.57,1.44,3.11.29,5.28.63,3.68-2.42,1.53-3.7.46-.72,2.42-2.25,2.43-.53,2.43-2.43,2.56-1.24,3.44-2.03,1.37-1.21,2.95-1.73,2.33-1.57-.47-.47,2.58-2.65,1.71-3.33,2.25-1.8,3.15-3.69,1.53-.89,4.77-2.62,1.35.63,6.12,1.99,3.6-.37,4.68,2.26,6.84-.36,2.35-.09,3.77-1.09,3.15.07,3.99,1.5,3.3,3.54,2.52,2.22.25-.19,1.55,2.29,1.86,3.11.3-.78,1.68,2.27,1.31-.72,1.51.99,1.34,1.53-1.61,3.51.27,2.96-.72,3.07-1.18,2.43-1.44,3.77-2.07,6.75-1.53,6.12-2.16,4.05-.63,3.96.27,3.76-6.92,9.11-7.67,7.44-12.48,4.81-3.84,2.39-5.76v-6.95l-3.84-4.07"/>
  <path id="path94" class="st22" d="M364.06,234.97l-2.61,1.89h-2.7l1.08,2.97,2.7.99s2.07.27,2.61,0c.54-.27,2.61-1.71,2.61-1.71l-.63-2.52-3.06-1.62"/>
  <path id="path96" class="st22" d="M406.53,231.37c-.19.27,0,2.43,0,2.97s-3.79,5.5-3.79,5.84c0,.37.27,2.71-.09,3.15-.36.45.63,3.07.63,3.43s1.17,4.4,1.17,4.4l.63,3.24-1.44,2.97-3.33.89s-4.69.82-5.67.73c-.99-.1-2.07-1.89-2.43-2.43-.36-.55-3.33-3.24-3.33-3.24l-3.43-2.16-7.23,2.69,1.02-4.76.76-2.12-1.57-.4s-.99,1.35-1.12,1.4c-.14.04-1.71,0-1.71,0l-1.8-1.4-1.44-1.53-1.4-.89-2.03,1.21-2.61,2.2-2.25,1.63-1.53-.32-.91,2.01-1.21,2.03-1.99-.13-.32-1.54,1.18-.32.81-1.4-2.2-1.65.22-2.79s2.88-2.12,3.02-2.12c.13,0,3.87-.49,3.87-.49l3.6-.68,1.89-.72v-5.44l1.3-3.51,5.99-1.48,7.2-3.6h6.66l5.76,1.44,9.53.72s-.27,1.89-.45,2.16"/>
  <path id="path98" class="st16" d="M406.97,271.13l-2.07-2.51,1.18-3.7.09-3.15-2.52-4.4-3.33.89s-4.69.82-5.67.73c-.99-.1-2.07-1.89-2.43-2.43-.36-.55-3.33-3.24-3.33-3.24l-3.43-2.16-7.23,2.69.36,8.05-1.08,3.18-1.74,1.97-2.03.42-4.15-2.16-1.33-3.17-6.1-5.28-5.34,1.5-2.23,5.04v3.41l-3.41,4.87v6.2l-.63,3.15,3.24-1.17,3.24-3.32s5.14-1.91,5.48-1.5c.37.4,5.86,1.67,5.86,1.67h7.92l6.56-1.73,2.52,4.16,3.43.81,6.02,5.67,3.79-.63,2.52-1.63,3.14.55,2.71-3.61,1.8-1.06v-4.68l-1.8-3.43"/>
  <path id="path100" class="st35" d="M396.81,285.29h0s-1.99.33-1.99.33l-6.02-5.67-3.43-.81-2.52-4.16-6.56,1.73h-7.92s-5.48-1.27-5.86-1.67c-.35-.42-5.48,1.5-5.48,1.5l-3.24,3.32-3.24,1.17.99,3.15-.36,3.6,2.79,3.5,2.52,2.71,2.61.81,2.79.55s2.33-.09,2.61,0,1.99,2.52,1.99,2.52c0,0-.19,2.06-.55,2.52-.36.45-1.08,2.69-.45,3.24.62.53,3.69,2.25,3.69,2.25l2.35,2.88v2.69l3.33-1.34,3.5.81,3.6-.91s.72-1.7,1.09-1.97c.35-.27,2.78-1.53,3.14-1.53s2.62,1.34,2.62,1.34c0,0,1.79-1.25,1.61-1.53-.17-.26-1.17-1.53-1.61-1.89-.46-.36.17-3.07.17-3.07l1.45-3.77,2.78-1.8s-.99-2.25,0-2.25,5.04-.55,5.04-.55l-1.63-3.15.19-4.55"/>
  <path id="path102" class="st27" d="M443.22,314.59l-4.32-2.16-.99-4.17-2.04-.72-1.68-3.48-.48-3.12s-1.44-1.68-2.16-2.04-.6-5.7-.6-5.7c0,0-.24-3.42-.6-3.9-.36-.48-1.44-2.4-1.92-2.64-.48-.24-3.84-2.28-4.32-2.16-.48.12-3.96,1.8-3.96,1.8l-2.76-1.8s-2.4-1.79-2.64-2.15c-.24-.36-3.24-1.32-3.24-1.32l-2.76-1.8-1.8,1.06-2.71,3.61-3.14-.55-2.52,1.63-1.8.3h0s-.19,4.55-.19,4.55l1.63,3.15s-4.06.55-5.04.55,0,2.25,0,2.25l-2.78,1.8-1.45,3.77s-.63,2.71-.17,3.07c.45.36,1.44,1.63,1.61,1.89.17.27-1.61,1.53-1.61,1.53,0,0-2.26-1.34-2.62-1.34s-2.79,1.25-3.14,1.53c-.37.27-1.09,1.97-1.09,1.97l-3.6.91-3.5-.81-3.33,1.34v3.61l2.87,5.76s.36,3.24,0,3.96c-.36.72-2.33,3.96-2.87,4.5-.55.54-4.15,4.86-4.15,4.86l3.15,1.17,1.26,3.51s-.36,2.16.18,2.7,4.05,0,4.05,0l2.88-3.69,8.64-.81,10.71,2.34,4.76,2.4,5.76-.6,7.02,1.98h9l2.7,3.42,2.7-1.26-1.44-2.34,1.44-6.21,3.24-1.08,4.05-1.62-.54-3.24-.63-5.22s-2.97-2.25-2.79-2.88,1.62-2.43,2.16-2.43,4.32,1.53,4.32,1.53l4.5-2.7,1.62-1.8-2.88-2.7"/>
  <path id="path104" class="st21" d="M365.95,300.37c.36-.46.55-2.52.55-2.52,0,0-1.71-2.43-1.99-2.52-.27-.09-2.61,0-2.61,0l-2.79-.55-2.61-.81-2.52-2.71-1.17,1.27v4.23l-2.79.17-2.25-1.89-4.59,1.04-1.04,2.12-1.94,4.27,2.59,1.81h8.87l8.41.72,5.43-1.41c-.63-.55.09-2.79.45-3.24"/>
  <path id="path106" class="st29" d="M375.67,349.57v7.86l-2.52-.11-8.75,11.04,1.44,4.07-1.93,1.08-3.83-1.44s-3.6-2.16-3.96-2.4c-.36-.23-2.76.49-3.24.85-.49.36-5.04-.49-5.04-.49,0,0-2.88,2.52-3.37,2.88-.48.36-1.91-1.67-2.16-2.03-.23-.36-2.03-3.24-2.63-3.84-.61-.6-2.52,1.32-2.52,1.32,0,0-3.71,0-4.07-.6-.36-.61,0-3.35,0-3.35h-2.52l-3.84-3.28s-4.79-3.44-7.67-4.63c-2.88-1.21,0,3.96,0,3.96,0,0-2.04.95-2.52.59-.49-.36-1.57-1.8-2.59-2.88-1.02-1.08-.17-1.91-.06-2.27.13-.36,0-1.68,0-1.68l-4.43-1.19-4.07-1.68s-4.56-2.52-4.81-2.88c-.23-.36,1.8-3.71,1.93-4.43.12-.72-.85-2.99-1.08-3.35-.24-.36-.96-3.24-.96-3.24v-6.12l-1.44-3.6s-2.27-2.04-2.52-2.76c-.25-.72.96-1.8,1.25-2.27.3-.49,1.27-3.48,1.27-3.48l-1.68-3.48-.83-3.77,2.52-1.38,1.91-2.63,10.2-2.52,3.17-2.95,3.54-1.31,3.24-2.22,4.61-.6,1.22-.76,3.41.04,2.48,1.31.81,1.74h-.76l-1.08-.35v1.53s1.12,1.48,1.25,1.57c.14.09,3.74.99,3.87.99.14,0,3.33-1.89,3.33-1.89l2.59,1.81h8.87l8.41.72,5.43-1.41c.62.53,3.69,2.25,3.69,2.25l2.35,2.88v6.29l2.88,5.76s.35,3.25,0,3.97c-.37.72-2.33,3.94-2.88,4.49-.55.55-4.15,4.87-4.15,4.87l3.15,1.17,1.25,3.5s-.36,2.16.19,2.71c.16.17.6.23,1.15.25-.09.78-.19,1.89-.23,2.22-.06.53,1.08,2.94,1.27,3.24.17.3,1.5,2.39,1.5,2.39"/>
  <path id="path108" class="st28" d="M502.86,373.57c.43-.59,1.27-1.38,1.57-1.97.3-.6.11-1.99,0-3.43-.12-1.44-1.08-1.19-1.38-1.5-.3-.3-2.99-1.02-2.99-1.02l-2.35-2.22-4.92-1.55-4.73-.72s-2.52-2.65-4.07-3.96c-1.55-1.32-3.84,2.27-5.28,1.8-1.44-.49-3.83-1.57-5.15-1.8-1.33-.24-2.99.72-5.4,0-2.4-.72-.83-4.45-.83-4.45v-4.07c0-1.69-6.12-1.55-6.12-1.55,0,0-2.88-1.44-4.09-2.29-1.19-.83,1.21-2.52,1.57-3.24.36-.72-1.32-4.43-1.32-4.43,0,0-2.16-3.12-2.52-3.43-.36-.32-3.71-1.8-3.71-1.8,0,0-2.29,1.27-2.88,1.15-.61-.13-3.73-.6-4.92-1.08-1.19-.49-.6,2-.6,2l-2.63,1.51-2.61-1.51h0s0,0,0,0l-4.05,1.62-3.24,1.08-1.44,6.21,1.44,2.34-2.7,1.26-2.7-3.42h-9l-7.02-1.98-5.76.6-4.76-2.4-10.71-2.34-8.64.81-2.88,3.69s-2.29.35-3.46.2c.17.02.35.04.56.04-.09.78-.19,1.89-.23,2.22-.06.53,1.08,2.94,1.27,3.24.17.3,1.5,2.39,1.5,2.39v7.86l-2.52-.11-8.75,11.04,1.44,4.07-1.93,1.08-2.27,8.03,5.76,3.6,3.12,1.93,5.15-.25,6.59,1.19,6.48-.23,5.28-3.12,3.12-2.63s5.04-.97,5.76-1.08c.72-.13,2.16-.13,3.24,0,1.08.11,1.91,1.19,2.75,1.83.85.62,2.29,1.53,3.24,2.13.96.59,1.44.95,1.93,1.31.47.36,2.75,1.57,2.75,1.57l1.32,6.71,1.68,2.65s1.31.72,2.75,1.55c1.44.83,1.21,1.8,1.44,2.99.25,1.21.72,3.01.25,3.84-.48.83-1.69-.25-2.88-.47-1.19-.25-4.32-1.57-5.4-1.44-1.08.11-1.08,2.88-1.08,2.88,0,0-.36,2.39-.83,2.99-.49.6-2.65,4.92-2.65,4.92,0,0-1.55,2.27-1.44,2.63.13.36,2.4,2.27,3.24,2.4.85.11,1.68-1.68,1.93-2.04.23-.36,4.32-1.32,4.32-1.32l1.74,1.32.72-2.69,6.89-7.2,1.14-2.88,1.74-1.68,3.24-.72s2.99-.47,3.41-.47,2.1.59,2.29.65c.17.07.48,2.76.48,2.76l-1.5,1.63-1.21-1.21-1.8-.23.72,1.37,3.01,1.21s2.75,1.14,2.99,1.14,1.68-.6,1.68-.6l3.24,1.27,1.86-.6,2.63.3.3,2.4-7.56,3.35-.78,2.22,2.27.36,2.76,1.38,2.03.72s.37,3.9.37,4.13c0,.24,1.25,3.3,1.25,3.3l2.52,1.02,3.18-2.63,2.58-2.63,2.16.59,2.22-.89,1.08-2.27h1.63l1.8,1.37,2.88.24s2.09-1.08,2.22-1.27c.11-.17,1.14-2.39,1.14-2.39l-2.22-.96-3.54-.89s-2.63.47-2.82.42c-.17-.06-2.82-1.99-2.82-1.99l-1.5-4.38-1.08-3.18,1.38-2.33s3.24.06,3.48-.13c.23-.17,1.86-1.91,1.86-1.91l4.02-.89s3.35-.85,3.54-.91c.17-.06,2.63-.53,2.63-.53l2.22-1.93,3.24-.89,2.16-1.21,2.42-.16.35-4.09,4.26-3.12s.25-.47,1.19-.78c.96-.3,2.94,0,4.43,0s1.68-.72,2.04-1.02,1.14-2.52,1.44-3.12c.3-.59.42-2.22.61-3.41.17-1.21-1.08-2.22-1.08-2.22,0,0-1.44-2.23-1.5-3.48-.07-1.27.95-1.14,1.37-1.74"/>
  <path id="path110" class="st23" d="M414.05,409.49c.47-.61.83-2.99.83-2.99,0,0,0-2.76,1.08-2.88,1.08-.13,4.2,1.19,5.4,1.44,1.19.23,2.4,1.31,2.88.47.47-.83,0-2.63-.25-3.84-.23-1.19,0-2.16-1.44-2.99-1.44-.83-2.75-1.55-2.75-1.55l-1.68-2.65-1.32-6.71s-2.27-1.21-2.75-1.57c-.49-.36-.97-.72-1.93-1.31-.95-.61-2.39-1.51-3.24-2.13-.83-.63-1.67-1.71-2.75-1.83-1.08-.13-2.52-.13-3.24,0-.72.11-5.76,1.08-5.76,1.08l4.07,7.13,5.76,9.35,1.44,5.76v10.08l1.55,2.7c-.12-.36,1.44-2.63,1.44-2.63,0,0,2.16-4.32,2.65-4.92"/>
  <path id="path112" class="st24" d="M586.77,472.58l-2.76.72-2.52.36-.72,3.84s-1.91,4.07-1.91,4.43v4.45l-2.04,1.19s-.61-3.6-.83-2.88c-.25.72-.72,6.36-.72,6.36l-3.01.23-3.11-2.39,1.8-2.88-1.68-2.4,2.04-1.8-3.12-2.88-6.84,4.2v2.52l-3.71.95-3.12,1.21-2.99-.72-4.2-2.65-2.88-2.39-1.91-3.48h3.35l1.2,1.8,2.65,1.19s1.44,1.93,1.8,2.4c.36.47,2.39,1.55,2.39,1.55l2.76-1.08s-.36-2.99-.61-3.35c-.23-.36-2.03-1.55-2.03-1.55l-2.88-2.04s.95-1.8.95-2.52-.95-2.99-1.67-3.24c-.72-.25-2.52-1.08-2.52-1.08l.59-2.99s-1.8-1.8-2.16-1.93c-.36-.11-2.39-2.99-2.39-2.99l2.16-1.55,4.68,1.91,4.07,1.08,2.88-.12v-3.6l-3.24-1.93s2.16-1.67,2.52-1.8c.36-.12,2.27,0,2.88.85.6.83,2.88,3.71,2.88,3.71l2.76,2.16,2.99-.96.83-3.11,3.84-2.69.17.29,2.95,2.22,1.91,4.38,2.63,4.09,3.24,2.27,2.65,2.63"/>
  <path id="path114" class="st25" d="M547.06,480.38l2.65,1.19s1.44,1.93,1.8,2.4c.36.47,2.39,1.55,2.39,1.55l2.76-1.08s-.36-2.99-.61-3.35c-.23-.36-2.03-1.55-2.03-1.55l-2.88-2.04s.95-1.8.95-2.52-.95-2.99-1.67-3.24c-.72-.25-2.52-1.08-2.52-1.08l.59-2.99s-1.8-1.8-2.16-1.93c-.36-.11-2.39-2.99-2.39-2.99l-2.76,1.44-9.63.99,2.71,4.05-2.79,3.24,3.43,2.61,5.04.99,2.58,2.52h3.35l1.2,1.8"/>
  <path id="path116" class="st4" d="M557.74,460.47v3.6l-2.88.12-4.07-1.08-4.68-1.91-2.16,1.55-2.76,1.44-9.63.99-2.79-2.79-1.61-1.98-3.05-.98-2.62,1.52-2.33-1.27-2.07.19-.55-2.25s1.54-1.27,1.54-1.54c0-.26-1.8-4.4-1.8-4.4l-.55-3.96-3.96-3.15-4.59-2.16-3.22-2.97.63-1.89,3.97.93,4.09,1.58,3.83.96,3.73.47,5.4-.83,2.99,3.24,5.64,1.44,2.27,2.27,2.04-1.19,3.96-.13,6.12,1.93.72,2.52,1.08,3.35,3.35.47,3.24,2.16c-.36.13-2.52,1.8-2.52,1.8l3.24,1.93"/>
  <path id="path118" class="st24" d="M419.45,416.08s-4.09.96-4.32,1.32c-.24.36-1.08,2.16-1.93,2.04-.83-.13-3.11-2.04-3.24-2.4l-1.55-2.7v-10.08l-1.44-5.76-5.76-9.35-4.07-7.13-3.12,2.63-5.28,3.12-6.48.23-6.59-1.19-5.15.25-3.12-1.93-.6,2.88-3.83,1.44s-2.04,1.44-2.4,2.4c-.36.96-.61,2.88-1.44,3.96-.83,1.08-2.76,4.2-3.6,4.56s-1.44,4.07-1.44,4.07l-2.16,2.4-3.71.59s-1.68,1.68-2.16,1.8c-.49.13,1.67,2.04,1.67,2.04,0,0,2.04,2.4,2.04,2.88s-.83,2.27-.24,2.88c.6.6,4.2,2.04,4.2,2.04,0,0,1.08,2.88,1.19,3.6.13.72.89,1.91,1.77,2.16.88.23,4.95,2.27,4.95,2.27l.47-2.16,3.24,2.63s-1.55.72-1.08,1.21c.49.48,3.12,2.39,3.12,2.39l-.96,2.76,2.29.72,1.91-.83s3.71,1.67,4.2,1.91c.47.25,8.15,0,8.15,0l3.37.97,3.24-.97,3.11-4.2,6.25.25,5.15,1.8,2.4-1.08,2.03,3.24,4.07-.07-.23-1.61,1.19-3.41.91-3.71,2.16-2.16,3.77.06.36-3.18,1.63-2.04-1.19-2.22-1.74-1.32"/>
  <path id="path120" class="st3" d="M408.53,435.76l-2.03-3.24-2.4,1.08-5.15-1.8-6.25-.25-3.11,4.2-3.24.97-3.37-.97s-7.67.25-8.15,0c-.49-.24-4.2-1.91-4.2-1.91l-1.91.83-2.29-.72.96-2.76s-1.26-.92-2.2-1.64h0l-1.28,2.25-1.67,2.4.47,2.52,2.47,2.99,2.09,2.04s-.25,1.8-.85,2.03c-.59.25-2.75,1.44-2.75,1.44l-2.04.85s1.44,3.24,1.44,3.71-.61,2.76-.61,2.76l4.81,2.16v3.6c0,.36-.85,3.6-.85,3.6h4.68l3.6-1.44,4.09-.25,4.43,2.63,4.56.85,2.39-1.68,2.04-1.68,4-1.19-.04-.53-1.99-2.35,3.6-1.17,3.6-.72,1.81,1.44,3.6-.81-.66-1.51-1.57-3.83s3.12-2.76,2.88-3.12c-.23-.36-.23-3.6-.23-3.6l.83-3.6,3.84.72.95-2.63-.25-1.76-4.07.07"/>
  <path id="path122" class="st34" d="M392.22,460.34l-2.04,1.68-2.39,1.68-4.56-.85-4.43-2.63-4.09.25-3.6,1.44h-4.68l-1.11,1.8-2.33,1.01h-3.79l-3.05,2.35-3.96.45-1.35,2.35v2.16l-1.61.99-.72,2.61h-1.37l-.53,2.16-2.52,2.25,1.54,4.23,3.86,1.89-1.53,3.51,3.24.26.63,2.35,4.04.63,1.27,1.25-2.88,1.63-1.44,2.06,1.97,2.98,1.97,2.69-.81,3.34,1.63,1.89,2.16-1.35,1.08,1.35,2.69,2.97s.99-2.07,1.35-2.07,1.25,1.44,1.25,1.44l2.53.82.35-2.43-2.33-3.7-1.61-4.79,2.27,1.08,1.38,1.44,1.91-.78-.53-2.46s-1.44-.89-1.57-1.14c-.11-.25-1.38-1.99-1.38-1.99l-6.78-3.6,2.29-.65,2.22,1.02,2.88,1.61,1.55,1.68,1.35-.4c0,.06.22.27,1.89,1.05,2.29,1.09,0,0,2.82,2.23,2.82,2.22,0,0,.78-1.02.79-1.02,0,0-.17-2.27-.19-2.29.83-1.15.83-1.15l2.04.96,1.44,1.68s.72,1.01,1.44,1.61c.72.61,1.44.97,1.67,1.33.25.36,1.99,2.04,1.99,2.04l1.91-.13-.53-1.5s-2.4-1.33-2.52-1.5c-.11-.19-1.86-2.46-1.86-2.46l-1.74-.96v-1.25l-1.38-1.21-1.55-1.01s-.33-2.94-.42-3.08c-.1-.13-2.12-.32-2.12-.32l-2.47-.49s-.76-1.12-.95-1.31c-.17-.17-1.93-1.29-2.12-1.21-.17.09-.22,1.89-.22,1.89l1.8,1.71.13,1.48-1.84-1.4s-1.44-1.04-1.57-1.31c-.14-.26-.14-1.53-.32-1.7-.19-.19-1.44-1.27-1.58-1.44-.13-.19,1.63-1.31,1.63-1.31,0,0,1.44-.36,1.57-.53.14-.19-.81-.91-.95-1.04-.13-.14-.3-1.58-.3-1.58l-1.61-3.04s-1.8-2.32-1.86-2.4c-.06-.09-.5-2.39-.47-2.49.03-.09,1.05-2.78,1.05-2.78,0,0,1.41-.88,1.53-.79.12.1,1.08,1.15,1.08,1.15l.59.83,1.18,1.38.2,1.77,1.63,1.22s.99-.63,1.11-.75c.11-.12-.69-.97-.81-1.14-.13-.19.66-.72.66-.72,0,0,1.17.89,1.25.92.09.03,1.17-.17,1.25-.2.1-.03-1.04-1.27-1.04-1.27l.36-.47,1.58.45.61,1.53,1.61.1.22-.72-1.08-1.8-1.74-.72-1.77-1.12s-.23-1.67-.23-1.8c0-.14,1.04-.76,1.44-.76s1.99.4,2.12.4c.14,0,.99-.72,1.04-.86.04-.13,1.35-.63,1.53-.63.19,0,.91.99.82,1.22-.1.22.45,1.48.62,1.61.19.14.72-1.25.72-1.25l.46-1.4,1.7-.68,1.18-.89,2.1.72h2.12l2.3,1.48,2.33-.99.55-1.61.27-1.09,1.89-2.33-.23-2.52-4,1.19"/>
  <path id="path124" class="st18" d="M367.28,454.71l-4.81-2.16s.19-.71.35-1.43l-6.23.47-2.76,2.04s-3.36-.12-4.17,0-.63,2.08-.63,2.08l-1.89,2.71v5.28l2.13,2.75,2.91,1.05,3.96-.45,3.05-2.35h3.79l2.33-1.01,1.11-1.8s.85-3.24.85-3.6v-3.6"/>
  <path id="path126" class="st32" d="M347.15,463.71v-5.28l1.05-1.5-1.05-3.78-3.05-2.99-3.08-1.08-2.16.96-.91,3.11v2.56l.93.56,1.34,2.16-1.53,1.8.27,3.6-1.08,2.16s.81,2.52.72,3.05c-.09.55-.99,3.25-.99,3.25l1.08,2.42,3.24,1.8,2.16,3.51,2.52-2.25.53-2.16h1.37l.72-2.61,1.61-.99v-2.16l1.35-2.35-2.91-1.05-2.13-2.75"/>
  <path id="path128" class="st9" d="M347.15,458.43l1.89-2.71s-.18-1.96.63-2.08c.81-.12,4.17,0,4.17,0l2.76-2.04.85-.06c-.28-.76-.58-1.55-.61-1.73-.06-.36-1.2-3.12-1.44-3.16-.24-.04-3.48-3.98-3.84-4.16-.36-.18-2.7-.42-2.7-.42,0,0-1.26,3.12-1.38,3.42-.12.3-2.88,1.5-2.88,1.5l-.37,3.32,2.91,2.85,1.05,3.78-1.05,1.5"/>
  <path id="path130" class="st14" d="M362.71,436.72l-.47-2.52,1.67-2.4,1.28-2.25h0c-.41-.32-.77-.6-.92-.75-.48-.49,1.08-1.21,1.08-1.21l-3.24-2.63-.47,2.16s-4.07-2.04-4.95-2.27c-.88-.25-1.64-1.44-1.77-2.16-.12-.72-1.19-3.6-1.19-3.6,0,0-3.6-1.44-4.2-2.04-.59-.6.24-2.4.24-2.88s-2.04-2.88-2.04-2.88c0,0-2.16-1.91-1.67-2.04l-6.24-.83-2.88,2.52h-2.52v2.88l1.68,2.28-.6,1.44,1.56,2.16-1.44,1.56.84,2.04.36,3.6.12,2.67,3.3,2.73-2.61,2.16.87,3.84s-2.35,1.44-.87,1.92c1.47.48,5.55,3.12,5.55,3.12l2.88,1.08.89,1.46c.29-.16.51-.3.54-.38.12-.3,1.38-3.42,1.38-3.42,0,0,2.34.24,2.7.42.36.18,3.6,4.12,3.84,4.16s1.38,2.8,1.44,3.16c.03.19.33.97.61,1.73l-.85.06,6.23-.47c-.17.71-.35,1.43-.35,1.43,0,0,.61-2.29.61-2.76s-1.44-3.71-1.44-3.71l2.04-.85s2.16-1.19,2.75-1.44c.6-.23.85-2.03.85-2.03l-2.09-2.04-2.47-2.99"/>
  <path id="path132" class="st3" d="M338.48,438.28l-.87-3.84,2.61-2.16-3.3-2.73-.12-2.67-.36-3.6-.84-2.03-7.19-1.68s-5.53.36-6,.36-5.87-.83-5.87-.83l-3.12,1.91-1.44-1.91-1.91.59v5.4l2.63,3.24,2.4,4.81,2.88,2.88,3.6,2.52,2.27,3.54v4.22l1.44-.53,5.84,4.23c-.06-1.3-.47-3.25-.56-3.7-.13-.63.12-2.25.12-2.72s.47-2.4.47-2.4l3.24-1.55,3.19.59c-1.43-.49.89-1.91.89-1.91"/>
  <path id="path134" class="st8" d="M346.94,445.86l-.89-1.46-2.88-1.08s-4.08-2.64-5.55-3.12c0,0-.01,0-.02,0l-3.19-.59-3.24,1.55s-.47,1.91-.47,2.4-.25,2.09-.12,2.72c.09.45.5,2.4.56,3.7l1.99,1.44,2.25,2.78,2.58,1.51v-2.56l.91-3.11,2.16-.96,3.08,1.08,1.35,1.32-1.2-1.18.37-3.32s1.5-.65,2.34-1.12"/>
  <path id="path136" class="st0" d="M321.58,438.52l-3.6-2.52-2.88-2.88-2.4-4.81-2.63-3.24v-5.4l1.91-.59,1.44,1.91,3.12-1.91s5.4.83,5.87.83,6-.36,6-.36l7.19,1.68.84,2.03-.84-2.04,1.44-1.56-1.56-2.16.6-1.44-1.68-2.28v-2.88h0s-5.99,1.32-5.99,1.32c0,0-6.84-2.29-7.33-2.88-.48-.59-2.63-3.73-2.63-3.73l-5.87-1.67s-1.32,2.16-1.8,2.52c-.49.36-2.52,1.91-3.6,1.91s-1.93,3.96-1.93,3.96l-.59,3.96-2.88.47s-2.29-2.03-2.76-2.39c-.47-.36-1.8.95-1.8.95l-3.22-.95c0,.56-.91,1.14-.91,1.14h-2.35l.19,2.88,1.7,2.85,2.52,1.97,2.43-2.33,3.77,1.25.99,1.71s-.09,2.88-.09,3.15c0,.26,2.61,1.61,2.61,1.61l-.17,2.71,5.3,4.95,2.26.98,3.5,1.18s.19.89-.45,1.34c-.62.45,2.52,1.8,2.52,1.8l2.97.36.63,2.79,2.43,1.53v-4.22l-2.27-3.54"/>
  <path id="path138" class="st17" d="M361.63,381.54l-5.04-.12-2.88-1.29-2.88-.62-4.32.62-1.08,3.93-3.12,1.56-1.56-1.56-6.36,1.44-1.08,1.8-2.88,2.16-6.24-.12-3.36-2.04-2.4,3.12-2.64,1.68-1.32,3.96-2.4,2.88,1.8,3-1.31,2.04,5.87,1.67s2.16,3.14,2.63,3.73c.49.59,7.33,2.88,7.33,2.88l5.99-1.32h0s0,0,0,0h2.52l2.88-2.52,6.24.83c.47-.11,2.16-1.8,2.16-1.8l3.71-.59,2.16-2.4s.6-3.71,1.44-4.07c.83-.36,2.76-3.48,3.6-4.56.83-1.08,1.08-2.99,1.44-3.96.36-.97,2.4-2.4,2.4-2.4l3.83-1.44.6-2.88-5.76-3.6"/>
  <path id="path140" class="st1" d="M360.08,372.07s-3.6-2.16-3.96-2.4c-.36-.23-2.76.49-3.24.85-.49.36-5.04-.49-5.04-.49,0,0-2.88,2.52-3.37,2.88-.48.36-1.91-1.67-2.16-2.03-.23-.36-2.03-3.24-2.63-3.84-.61-.6-2.52,1.32-2.52,1.32,0,0-3.71,0-4.07-.6,0-.01-.01-.04-.02-.06l-3.95,2.45-5.28,5.52-5.88,1.32-.6,3.72,2.16,3.6,1.32,3,3.36,2.04,6.24.12,2.88-2.16,1.08-1.8,6.36-1.44,1.56,1.56,3.12-1.56,1.08-3.93,4.32-.62,2.88.62,2.88,1.29,5.04.12,2.27-8.03-3.83-1.44"/>
  <path id="path142" class="st30" d="M333.09,364.4h-2.52l-3.84-3.28s-4.79-3.44-7.67-4.63c-2.88-1.21,0,3.96,0,3.96,0,0-2.04.95-2.52.59-.49-.36-1.57-1.8-2.59-2.88-1.02-1.08-.17-1.91-.06-2.27.13-.36,0-1.68,0-1.68l-4.43-1.19-4.07-1.68s-4.56-2.52-4.81-2.88v2.94h-4.11l-3.03,1.62-6.48,2.16-4.68,2.88v4.2l1.56,5.88,3.48,3.96,3.42,3.24,5.72,4.2,4.11-1.32,1.86-2.52,5.94,1.44,9.59-.12,5.88-1.32,5.28-5.52,3.95-2.45c-.32-.68.02-3.3.02-3.3"/>
  <path id="path144" class="st10" d="M312.1,398.94h0s-7.07,1.55-7.43,1.55-3.01,2.76-3.37,2.88c-.36.11-5.27,1.19-6.12,1.44-.84.25-3.6,0-3.6,0l-1.91,1.8,1.08,2.76.11,3.66,2.16.59c.73.2.98.49.98.79l3.22.95s1.33-1.31,1.8-.95c.47.36,2.76,2.39,2.76,2.39l2.88-.47.59-3.96s.85-3.96,1.93-3.96,3.11-1.55,3.6-1.91c.48-.36,1.8-2.52,1.8-2.52l1.31-2.04-1.8-2.99"/>
  <path id="path146" class="st29" d="M330.14,474.98l-2.88-4.85-5.93-4.87-6.12-2.33-4.51-2.35,1.27-1.97-.72-2.53-5.21.55-4.69-1.44-4.13-5.4-3.41-6.84s-1.63-4.15-1.99-5.4-7.56-5.23-7.56-5.23l-2.69-3.6-.07-4.79,1.32-2.22s-1.44-2.71-1.55-2.94c-.13-.24.53-2.46.53-2.46l2.88-.06,4.43-2.35,1.74-.89-.11-3.66-1.08-2.76,1.91-1.8-2.75-2.52-4.98-.36-2.58-1.08-3.48-1.91h-4.56l-3.47,2.75-4.92,2.29-1.71,2.45-2.25,1.44-3.15-1.61-1.53,1.61-.45,2.35-1.14,1.32-2.01-2.16-1.91-2.29-2.52-1.8-.72,3.96-2.76,1.68h-3.35l-4.45,1.32,1.8,2.63.55,3.24-3.9,1.55,1.44,2.76,2.76,1.8-1.32,3.6,1.68,2.63,3.24,1.32-1.21,3.84,2.95-2.4,4.13-1.25,3.07-2.71,2.88-1.27,4.85,2.35,4.13,2.69,2.53,5.04.89,4.69,2.88,3.41,3.05,3.24,2.71,3.6,2.88.17,1.61,3.97,3.37,2.69,3.66,2.69,6,1.38,3.35,3.01,2.16,2.75,2.99,1.57.49,2.27,1.44,2.16,3.83-.36,2.04,3.24,1.32,2.4.47,4.07.61,3.6-2.52,3.84-2.76,2.03h-5.15s-1.93,1.21-2.76,1.21-3.12.12-3.12.12l-3.96.36-3.35-1.33-1.32,1.68s-2.52-1.68-3.41-1.8c-.91-.11-2.58,1.55-2.58,1.55l2.58,2.65,3.66,1.44s5.64,4.79,6,4.91c.36.13,2.63.96,2.63.96,0,0,2.88,3.35,2.88,3.6s3.96,1.8,3.96,1.8l2.76-3.3-.13-3.37-2.03-3.66,4.16-4.52,2.79-.55,3.15-1.08,1.53-2.69,1.89-2.43-.45-2.69,2.88-.72.96-4.33-2.94-1.97-1.99.3-.09-3.35,2.25-5.86,3.05-.81,2.79,2.07,2.25.99.1,2.5,1.89,1.18,1.17,1.53,1.89.36-.72-4.32"/>
  <path id="path148" class="st25" d="M317.37,380.71l.6-3.72-9.59.12-5.94-1.44-1.86,2.52-4.11,1.32-3.03-2.22-1.14,1.62-2.64,1.56-1.44,3.24-3.12,2.64,1.8,2.52v1.56l-2.04,1.32-3.36-1.32-4.68,1.8-4.44,2.88-1.68-2.76-3.36-.12-.72,1.56-2.1-.12-2.58-2.64-2.64,2.04,1.56,4.56,3.24,1.32h2.88l2.76,2.75,3.47-2.75h4.56l3.48,1.91,2.58,1.08,4.98.36,2.75,2.52s2.76.25,3.6,0c.85-.24,5.76-1.32,6.12-1.44.36-.12,3.01-2.88,3.37-2.88s7.43-1.55,7.43-1.55h0s0,0,0,0l2.4-2.88,1.32-3.96,2.64-1.68,2.4-3.12-1.32-3-2.16-3.6"/>
  <path id="path150" class="st2" d="M302.5,344c-.13.72-2.16,4.07-1.93,4.43v2.95h-4.1l-3.04,1.61-6.48,2.16-4.66,2.88v4.2l1.55,5.87,3.48,3.96,3.41,3.24,2.69,1.97-1.14,1.63-2.63,1.55-1.44,3.24-3.12,2.65,1.8,2.52v1.55l-2.03,1.32-3.37-1.32-4.68,1.8-4.43,2.88-1.68-2.76-3.35-.12-.72,1.55-2.1-.11-2.58-2.63-2.63,2.03-3.37-3.6-2.99.83-2.88-2.15-.97,1.31,1.68,2.16-7.2-.47-.96-4.56,2.16-4.79.24-3.6,3.24-3.34-1.32-1.34-3.71-.83-3.84.83-3.11-1.55-2.29-3.12v-2.99l-1.55-3.6v-4.81l-.91-5.7v-5.21l.91-4.56-1.8-3.83,2.76-.96,3.71.96.96-3.96-.49-4.81,2.29-3.96v-4.68l-.06-7.04,5.48-1.54,2.33,2.43.72,1.8,2.79.46-.72-3.43.72-1.89,1.25-.27,1.04.72,1.08-.32v-2.65l-.68-1.22.68-1.8-1.89-.57-.68-1.4,1.89-1.71-1.54-3.2-.79-1.35,4.92-.53,4.48.13,1.71,2.07.72,1.67-.81,1.84,2.01.45s.59,1.31.76,1.44c.19.13,1.71.23,1.71.23l1.89-.32,1.04-.85,1.84-1.9,1.35,1.04-1.44,1.8-.27,1.89s-1.25,1.04-1.3,1.18c-.04.13-.27,1.38-.14,1.48.14.09,2.03-.36,2.03-.36l1.53.58,1.94-1.21s1.97-.49,2.1-.55c.14-.04,2.62-1.65,2.62-1.65l1.53-1.76s2.16-1.08,2.29-1.08c.14,0,2.52.13,2.52.13l1.18-2.73,3.19-.59,1.21,2.35-1.08,2.2s-1.63.68-1.27,1.21c.36.55,1.8,1.84,1.8,1.84l2.14.46,1.44,1.97,1.32,1.74.83,3.77,1.68,3.48s-.96,2.99-1.27,3.48c-.29.47-1.5,1.55-1.25,2.27.24.72,2.52,2.76,2.52,2.76l1.44,3.6v6.12s.72,2.88.96,3.24c.23.36,1.2,2.63,1.08,3.35"/>
  <path id="path152" class="st7" d="M269.39,293.03l.58,1.5-1.34.66-1.5.5-1.89-.19-1.8-1.17-1.4-1.97-1.12-1.5-.76,1.44s-.4,1.9-.32,2.07c.09.19.95,1.31.95,1.31l.13,1.65-4.48-.13-4.92.53.22-1.14-.1-5.9-1.01-.78-.78.85-.94-.85-.36-1.48-1.12-.95-.11-15.66.96-2.03,1.74-3.65,1.55-1.27,2.58-.36h3.6l1.68-1.5,1.71-3.33,1.97-1.89h2.43l1.63,1.79v2.98l-.82,2.25-.62,2.24-.37,2.16-.35,1.71-2.16,1.17h1.89l-.55,1.63,1.8-.36,2.43.27,2.16,1.38-1.35,3.28-1.71,1.81h-1.61l-1.53,1.06-1.18,2.79-1.97,2.88.09,1.53,1.67-.22,2.83-.45,1.57,1.38,1.53,1.14.46,2.78"/>
  <path id="path154" class="st19" d="M231.55,346.52l.91-4.56-1.8-3.83,2.76-.96,3.71.96.96-3.96-.49-4.81,2.29-3.96v-4.68l-.06-7.04-2.07,1.53-2.16,1.97-1.67-.81-1.89.23-1.04,1.44-2.39.36s-2.16,1.08-2.37,1.17c-.23.09-1.44,1.67-1.44,1.67,0,0-1.76,2.29-1.94,2.42-.17.14-.85-.35-1.02-.53-.19-.19.3-1.21.4-1.4.09-.17.81-1.53.89-1.67.09-.13,2.25-1.48,2.25-1.48l2.66-.68,1.44-.49-.68-.68-2.97-.36s-2.39,1.31-2.66,1.48c-.27.19-1.66,2.12-1.66,2.12l-1.12,2.43.89,2.35-1.8,2.09-.6,3.84-1.74,4.26-2.33,1.67.58,3.9,1.11,3.15h4.32l2.27,1.53,4.79,1.93,3.66,1.42v-2.03"/>
  <path id="path156" class="st33" d="M234.01,368.83l-4.25-.48-1.98-1.44.6-3.54,1.14-3.72,2.94-1.2v3.78l1.55,3.6v2.99"/>
  <path id="path158" class="st27" d="M202.23,348.2l.45,2.63,2.43,2.61,2.43-.72,1.53,2.07v1.62l3.42,1.08,2.34,3.06,1.98,2.52,3.87.57,3.15,2.49,3.96.78.6-3.54,1.14-3.72,2.94-1.2v-1.02l-.91-5.7v-3.18l-8.45-3.35-2.27-1.53h-4.32l-.27,1.86-2.91.88-1.8-.49-1.35.27-.45-.99-1.86-.72-5.64,3.73"/>
  <path id="path160" class="st22" d="M243.25,372.67l-3.84.83-3.11-1.55-2.29-3.12-4.25-.48-1.99-1.44h0s-3.95-.79-3.95-.79l-3.15-2.49-3.87-.57-1.98-2.52-2.34-3.06-3.42-1.08v-1.62l-1.53-2.07-2.43.72-2.43-2.61-.45-2.63-6.66,2.75-.23,2.1-1.02,2.88.72,3.6-4.13,3.86-2.66-.23-4.53,2.88-.42,2.25,1.54.55-2.52,1.99-2.12-.46-4.99.09-2.52-.94.17-1.67-1.04-2.12-3.81.63-.36,2.35,1.53,1.93.04,2.65,1.08,2.27.52,3.05-1.99.36-2.27-.83-1.14.95-2.58-.59-2.4.83-2.82-3.05-3.84-.72-.72,1.67-2.52.42-4.55.49-2.01,1.86-.3,1.83,1.12,1.09.19,1.76-.91,1.53,1.94,1.35.13,1.31,2.35.26,1.48-.94,1.3.72,1.12-.46,1.4,1.18,2.3.93,2.02.32,4.07,2.25.23,2.4,3.6,1.86.06,3.4,2.03,2.88,4.1,2.88-.1,3.77,2.79,4.76h-1.63l-.45,7.02,1.08,1.8-1.89,1.63.63,5.48-1.44,1.44-1.71,6.43,1.08,3.25,4.68,2.16,1.91,2.39,4.09-.72,3.35,1.68,2.63-.96s3.12-.23,3.84,0c.72.25,4.2,2.16,4.2,2.16l4.32,2.16,8.12-1.83-.98-1.53,1.17-5.84,6.79-4.68,1.74,1.97,2.53-.22,3.14.56,1.66-.49,2.1,2.46,1.91.29.89,1.09,4.59.45.55-1.44h1.61l1.35-2.61h1.25l.63-1.09,1.44-1.53,1.83-.92,1.21-3.84-3.24-1.32-1.68-2.63,1.32-3.6-2.76-1.8-1.44-2.76,3.9-1.55-.55-3.24-1.8-2.63,4.45-1.32-1.93.57-1.67-2.25v-4.33l-3.48.49-.96,2.8-3.24,1.76v-4.44l2.4-2.52.72-3.48,4.92-4.44.48-1.68h2.76l2.28-2.28-.96-4.56,2.16-4.79.24-3.6,3.24-3.34-1.32-1.34-3.71-.83"/>
  <path id="path162" class="st11" d="M207.54,451.05l.17-1.89-8.12,1.83-4.32-2.16s-3.48-1.91-4.2-2.16c-.72-.23-3.84,0-3.84,0l-2.63.96-3.35-1.68-4.09.72-1.91-2.39-4.68-2.16-1.08-3.25-5.99,1.08-1.38-1.22-3.87.16-1.54.29-2.58-1.25-2.69.09-1.21.91-8.58-.45-2.98-1.76-2.25.4-1.8-.68-9.85.53-3.91-1.32-3.64.52-1.08,3.24-2.79.85-3.43.5-1.89,3.15,1.31,2.65,1.48,1.12-.09,2.07,1.34,1.57-1.38,1.54.63,2.52,4-1.51,3.6,1.44h9.17l1.8,2.94,1.44,2.82-4.32,3.37.36,4.43-1.63,4.15v4.62l-3.05,1.14,1.44,4.49,1.08,4.2-1.8,4.26,1.8,4.66-3.6,3.6,1.02,4.62,4.73.49,3.84,3.24,1.01,4.85,2.65,2.94,2.82.42,4.26-4.66h2.75l2.58-2.65,3.24.72,5.22-.96,4.62.43,2.46-.79h2.99l1.32-2.39,1.55-3.07,3.07-1.87,5.23.32-.45-3.64.68-2.35,2.97-4.09,1.97-.72,1.77-1.91-1.38-1.44-1.25-1.63-1.32-3.6v-2.75l7.01-9.14,2.61-1.35-.95-2.01,2.2-2.56,2.39-.68,3.11-.81,3.01-.27,3.24-3.38,4.15-2.06,1.79-1.4-.35-1.9,1.25-2.16-1.89-.72"/>
  <path id="path164" class="st20" d="M125.22,496.38l-1.8-4.66,1.8-4.26-1.08-4.2-1.44-4.49,3.05-1.14v-4.62l1.63-4.15-.36-4.43,4.32-3.37-1.44-2.82-1.8-2.94h-9.17l-3.6-1.44-4,1.51.03.11-.53,3.96,1.86,4.32.19,4.02-1.21,2.46-2.33,10.61-2.58,2.22-.91,5.64,2.1,1.02,1.08,1.8,2.58,1.14-.78,3.54.96,2.99-.6,2.52-.36,4.02,4.92-.06,2.27,1.08,1.74.13,2.88-2.29-1.02-4.62,3.6-3.6"/>
  <path id="path166" class="st5" d="M137.1,303.34l-.99,3.35-3.54,1.68-4.82-.83-.96-2.65-2.03-.72v2.52l-2.04.85-3.48-1.5v-3.71l2.32-2.35.81-2.52,2.4-1.8,2.99-1.08-.47-2.16,3.21.95,2.03-.95,3.43,3.24v4.07l1.17,3.6"/>
</svg>